<svg width="100" height="100" viewBox="0 0 100 100" fill="none" xmlns="http://www.w3.org/2000/svg">
<path d="M50 100C77.062 100 99 78.062 99 51C99 23.938 77.062 2 50 2C22.938 2 1 23.938 1 51C1 78.062 22.938 100 50 100Z" fill="#20C4CB"/>
<path d="M62.7 59.2C60.7 61.4 57.9 62.5 56.6 62.5C55.1 62.5 54.3 61.6 54.1 60.2C54 59.7 54.1 59.1 54.2 58.6C54.7 55.5 55.8 53.5 55.8 53C55.8 52.8 55.7 52.7 55.6 52.7C54.6 52.7 51.2 56.2 50.7 58.5L50.3 60.4C50 61.7 48.8 62.5 47.9 62.5C47.5 62.5 47.2 62.3 47.1 61.8C47.1 61.6 47.1 61.4 47.1 61.2L47.3 60.2C45.5 61.6 43.5 62.5 42.6 62.5C41.3 62.5 40.6 61.8 40.4 60.8C39.6 61.9 38.5 62.5 37.3 62.5C35.8 62.5 34.4 61.5 33.7 60C32.7 61.1 31.5 62.2 30.1 63.1C28 64.4 25.7 65.5 23 65.5C20.5 65.5 18.3 64.2 17.2 63.1C15.4 61.5 14.5 59 14.2 56.8C13.3 49.8 17.6 40.5 24.3 36.5C25.8 35.6 27.5 35.1 29.1 35.1C32.3 35.1 34.7 37.4 35 40.1C35.3 42.6 34.3 44.7 31.6 46C30.2 46.7 29.5 46.7 29.3 46.3C29.2 46.1 29.2 45.7 29.5 45.5C32.1 43.4 32.1 41.6 31.8 39.1C31.6 37.5 30.6 36.5 29.4 36.5C24.2 36.5 17 47.8 18 56C18.4 59.2 20.4 62.9 24.4 62.9C25.7 62.9 27.2 62.5 28.4 61.9C30.6 60.8 31.9 59.9 33.1 58.4C32.8 54.6 36.1 49.8 40.9 49.8C43 49.8 44.7 50.6 44.9 52.3C45.2 54.4 43.4 54.8 42.7 54.8C42.1 54.8 41.2 54.6 41.1 54.1C41 53.5 42.4 53.8 42.2 52.5C42.1 51.7 41.2 51.4 40.4 51.4C37.4 51.4 35.7 55.6 36 58.2C36.1 59.4 36.8 60.6 37.8 60.6C38.7 60.6 40 59.3 40.4 57.5C40.7 56.2 41.9 55.4 42.8 55.4C43.3 55.4 43.6 55.6 43.6 56.1C43.6 56.3 43.6 56.5 43.6 56.7C43.5 57.2 43.1 59.1 43.1 59.4C43.1 59.7 43.3 60.2 43.9 60.2C44.4 60.2 46 59.3 47.6 57.9C48.1 55.4 48.7 52.3 48.7 52.1C48.9 51.1 49.3 50 51.3 50C51.7 50 52 50.2 52.1 50.7C52.1 50.9 52.1 51.1 52.1 51.3L51.6 54C53.4 51.6 56.2 49.8 57.9 49.8C58.6 49.8 59.2 50.2 59.3 50.9C59.4 51.3 59.2 52 59 52.8C58.4 54.4 57.7 56.9 57.3 59C57.2 59.5 57.4 60.1 58.2 60.1C58.9 60.1 61 59.3 62.7 57C62.7 56.7 62.7 56.4 62.7 56C62.7 54.2 62.8 52.8 63.2 51.7C63.5 50.6 64.9 49.6 65.8 49.6C66.3 49.6 66.6 49.9 66.6 50.4C66.6 50.6 66.6 50.8 66.5 51C65.9 52.9 65.5 54.6 65.5 56.3C65.5 57.3 65.7 58.8 65.9 59.6C65.9 59.8 66 59.9 66.2 59.9C66.5 59.9 68.5 58 69.9 55.6C68.6 54.8 67.9 53.3 67.9 51.5C67.9 48.5 69.7 46.9 71.5 46.9C72.9 46.9 74.1 47.9 74.1 49.9C74.1 51.2 73.6 52.6 72.9 54C72.9 54 73.2 54 73.3 54C74.4 54 75.2 53.5 75.7 52.9C75.9 52.7 76.1 52.5 76.3 52.4C77.7 50.7 79.8 49.5 82.2 49.5C84.3 49.5 86 50.3 86.2 52C86.5 54.1 84.6 54.6 84 54.6C83.4 54.6 82.4 54.4 82.4 53.9C82.3 53.4 83.7 53.6 83.6 52.3C83.5 51.5 82.6 51.1 81.8 51.1C79 51.1 77.1 54.8 77.4 57.9C77.5 59.1 78.1 60.3 79.2 60.3C80.1 60.3 81.4 59 81.9 57.2C82.2 56 83.4 55.1 84.3 55.1C84.7 55.1 85.1 55.3 85.1 55.8C85.1 56.1 85 56.6 84.6 58.6C84.4 59.4 84.4 60.2 84.4 60.7C84.6 61.9 85.1 62.7 85.6 63.2C85.8 63.4 85.9 63.6 85.9 63.7C85.9 64 85.7 64.3 85.3 64.3C85.2 64.3 85 64.3 84.9 64.2C82.7 63.3 81.8 61.8 81.6 60.5C80.8 61.6 79.7 62.1 78.5 62.1C76.6 62.1 74.7 60.4 74.4 58.2C74.3 57.3 74.4 56.3 74.7 55.4C73.9 55.9 73.1 56.2 72.3 56.2C72 56.2 71.8 56.2 71.6 56.2C69.7 58.9 67.7 60.8 66.2 61.7C65.6 62 65 62.2 64.6 62.2C64.3 62.2 63.9 62.1 63.7 61.8C63.1 61.4 62.8 60.4 62.7 59.2ZM69.5 50.2C69.5 51.4 70.1 52.6 70.8 53.4C71.1 52.6 71.3 51.8 71.3 51C71.3 49.5 70.7 48.8 70.3 48.8C69.7 48.8 69.5 49.6 69.5 50.2Z" fill="white"/>
</svg>
