<svg width="88" height="88" viewBox="0 0 88 88" fill="none" xmlns="http://www.w3.org/2000/svg">
<g clip-path="url(#clip0_155_402)">
<path d="M29.3333 88C37.4293 88 44 81.4294 44 73.3334V58.6667H29.3333C21.2373 58.6667 14.6667 65.2374 14.6667 73.3334C14.6667 81.4294 21.2373 88 29.3333 88Z" fill="#0ACF83"/>
<path d="M14.6667 44C14.6667 35.904 21.2373 29.3333 29.3333 29.3333H44V58.6666H29.3333C21.2373 58.6666 14.6667 52.096 14.6667 44Z" fill="#A259FF"/>
<path d="M14.6667 14.6667C14.6667 6.57067 21.2373 0 29.3333 0H44V29.3333H29.3333C21.2373 29.3333 14.6667 22.7627 14.6667 14.6667Z" fill="#F24E1E"/>
<path d="M44 0H58.6667C66.7627 0 73.3333 6.57067 73.3333 14.6667C73.3333 22.7627 66.7627 29.3333 58.6667 29.3333H44V0Z" fill="#FF7262"/>
<path d="M73.3333 44C73.3333 52.096 66.7627 58.6666 58.6667 58.6666C50.5707 58.6666 44 52.096 44 44C44 35.904 50.5707 29.3333 58.6667 29.3333C66.7627 29.3333 73.3333 35.904 73.3333 44Z" fill="#1ABCFE"/>
</g>
<defs>
<clipPath id="clip0_155_402">
<rect width="88" height="88" fill="white"/>
</clipPath>
</defs>
</svg>
