<svg width="219" height="54" viewBox="0 0 219 54" fill="none" xmlns="http://www.w3.org/2000/svg">
<g filter="url(#filter0_dii_26_23)">
<path d="M37.7079 8.58618C40.1229 8.58618 42.3097 9.01565 44.246 9.90063H44.245C46.1631 10.7657 47.7172 11.9682 48.8729 13.5198L49.1141 13.8547C49.6584 14.6451 50.0698 15.4932 50.3436 16.3967C50.6328 17.3512 50.3533 18.2606 49.7811 18.8997C49.2224 19.5235 48.3872 19.8967 47.4979 19.8967C45.8413 19.8966 44.6986 18.6315 44.1434 17.4856C43.8004 16.7777 43.2595 16.1706 42.4843 15.6663C41.1948 14.8274 39.5746 14.3792 37.5692 14.3792C36.099 14.3792 34.8582 14.6136 33.8251 15.0549L33.826 15.0559C32.7906 15.5032 32.0242 16.0981 31.4833 16.8225C30.9667 17.5295 30.7079 18.3248 30.7079 19.2415C30.7079 20.015 30.8909 20.6232 31.2147 21.1116C31.5958 21.6565 32.0822 22.1175 32.6854 22.4944C33.3466 22.8956 34.0401 23.2274 34.7645 23.4915C35.3357 23.6911 35.868 23.8617 36.3622 24.0032L36.8475 24.136L36.8534 24.137L40.4637 25.1008C41.4313 25.3526 42.4967 25.6972 43.6561 26.1311L44.1151 26.3098C45.1762 26.7438 46.1911 27.3037 47.16 27.9856H47.161C48.3386 28.7938 49.3064 29.8322 50.0614 31.0881C50.8594 32.4157 51.2303 34.001 51.2303 35.7932C51.2303 37.8865 50.6728 39.8001 49.5555 41.5081C48.4422 43.2278 46.8273 44.5657 44.7626 45.5403L44.7635 45.5413C42.6833 46.5287 40.2031 47.0002 37.3602 47.0002C34.7054 47.0002 32.3544 46.575 30.3339 45.6917H30.3319C28.3358 44.8135 26.7275 43.5707 25.5448 41.9524L25.5409 41.9475C24.8749 41.026 24.3737 40.0178 24.038 38.928C23.4066 36.8782 25.1766 35.2757 26.9628 35.2756C28.6946 35.2756 29.8707 36.6257 30.4169 37.8479C30.5917 38.2392 30.82 38.5905 31.1024 38.9055L31.3651 39.1721C31.9983 39.7725 32.7766 40.24 33.7167 40.5696C34.8333 40.9453 36.0453 41.1379 37.3602 41.1379C38.8992 41.1379 40.2475 40.8907 41.4208 40.4172C42.4492 39.9922 43.2582 39.4398 43.8749 38.7717L44.1278 38.4778C44.744 37.6984 45.0565 36.7947 45.0565 35.7239C45.0565 34.7501 44.7873 34.0495 44.3212 33.5305C43.7742 32.9217 43.0329 32.4016 42.0643 31.9885C41.0315 31.5481 39.9086 31.1606 38.6952 30.8264L38.6884 30.8245L34.3055 29.5833L34.3036 29.5823C31.4188 28.76 29.0651 27.567 27.2977 25.9651C25.4461 24.2868 24.5341 22.0827 24.5341 19.4485C24.5341 17.2777 25.131 15.3421 26.3456 13.6848V13.6838C27.5468 12.0495 29.1502 10.7954 31.1249 9.91528L31.4999 9.75317C33.3878 8.97006 35.4618 8.58622 37.7079 8.58618Z" fill="#F57627" stroke="#F57627" stroke-width="2"/>
<path d="M17.9865 28.7931C20.4013 28.7931 22.5874 28.3635 24.5236 27.4786H24.5226C26.4425 26.6128 27.9983 25.4092 29.1544 23.8556H29.1534C29.8174 22.9723 30.3097 22.0136 30.6222 20.9825C30.9114 20.0281 30.6319 19.1187 30.0597 18.4796C29.501 17.8558 28.6658 17.4826 27.7765 17.4825C26.1197 17.4825 24.9772 18.7478 24.422 19.8937C24.079 20.6016 23.538 21.2087 22.7628 21.713C21.4734 22.5519 19.8531 23.0001 17.8478 23.0001C16.3777 23.0001 15.1367 22.7656 14.1036 22.3243L14.1046 22.3234C13.0691 21.8761 12.3028 21.2812 11.7618 20.5568C11.5604 20.281 11.4011 19.9953 11.2804 19.6993C10.8058 18.5352 9.74695 17.1254 8.05286 17.0411C6.38274 16.9584 4.61746 18.3542 5.07922 20.3331C5.36525 21.5585 5.88095 22.6817 6.62317 23.6945L6.62415 23.6954C7.82584 25.3304 9.42974 26.5848 11.4054 27.465C13.3922 28.3565 15.5914 28.7931 17.9865 28.7931Z" fill="#F57627" stroke="#F57627" stroke-width="2"/>
<path d="M57.6388 28.6896C55.224 28.6896 53.0378 29.1192 51.1017 30.0041H51.1027C49.1827 30.8699 47.6269 32.0735 46.4708 33.6271H46.4718C45.8079 34.5105 45.3156 35.4691 45.0031 36.5002C44.7139 37.4546 44.9934 38.3641 45.5656 39.0031C46.1242 39.627 46.9595 40.0001 47.8488 40.0002C49.5055 40.0002 50.6481 38.7349 51.2032 37.5891C51.5463 36.8811 52.0872 36.2741 52.8624 35.7697C54.1518 34.9309 55.7722 34.4827 57.7775 34.4826C59.2476 34.4826 60.4885 34.7171 61.5216 35.1584L61.5206 35.1594C62.5562 35.6066 63.3225 36.2015 63.8634 36.926C64.0649 37.2017 64.2242 37.4874 64.3448 37.7834C64.8195 38.9476 65.8783 40.3574 67.5724 40.4416C69.2425 40.5244 71.0078 39.1285 70.546 37.1496C70.26 35.9242 69.7443 34.8011 69.0021 33.7883L69.0011 33.7873C67.7994 32.1524 66.1955 30.898 64.2198 30.0178C62.233 29.1263 60.0339 28.6896 57.6388 28.6896Z" fill="#F57627" stroke="#F57627" stroke-width="2"/>
</g>
<g filter="url(#filter1_dii_26_23)">
<circle cx="19.0127" cy="8.69565" r="6.69565" fill="#27A6F5"/>
</g>
<path d="M87.1246 33C86.6766 33 86.3086 32.864 86.0206 32.592C85.7486 32.304 85.6126 31.952 85.6126 31.536V17.664C85.6126 17.248 85.7486 16.904 86.0206 16.632C86.3086 16.344 86.6606 16.2 87.0766 16.2H94.8766C95.2926 16.2 95.6366 16.336 95.9086 16.608C96.1966 16.864 96.3406 17.2 96.3406 17.616C96.3406 17.968 96.1966 18.28 95.9086 18.552C95.6366 18.824 95.2926 18.96 94.8766 18.96H88.3966L88.6126 18.672V23.496L88.4446 23.184H93.7966C94.2126 23.184 94.5566 23.32 94.8286 23.592C95.1166 23.848 95.2606 24.184 95.2606 24.6C95.2606 24.952 95.1166 25.264 94.8286 25.536C94.5566 25.808 94.2126 25.944 93.7966 25.944H88.3966L88.6126 25.728V31.536C88.6126 31.952 88.4606 32.304 88.1566 32.592C87.8686 32.864 87.5246 33 87.1246 33ZM101.969 31.536C101.969 31.952 101.825 32.304 101.537 32.592C101.265 32.864 100.921 33 100.505 33C100.105 33 99.7692 32.864 99.4972 32.592C99.2252 32.304 99.0892 31.952 99.0892 31.536V16.704C99.0892 16.288 99.2252 15.944 99.4972 15.672C99.7852 15.384 100.137 15.24 100.553 15.24C100.969 15.24 101.305 15.384 101.561 15.672C101.833 15.944 101.969 16.288 101.969 16.704V31.536ZM117.54 26.592C117.54 27.904 117.244 29.064 116.652 30.072C116.076 31.064 115.292 31.84 114.3 32.4C113.324 32.96 112.228 33.24 111.012 33.24C109.796 33.24 108.692 32.96 107.7 32.4C106.724 31.84 105.94 31.064 105.348 30.072C104.772 29.064 104.484 27.904 104.484 26.592C104.484 25.28 104.772 24.128 105.348 23.136C105.94 22.128 106.724 21.344 107.7 20.784C108.692 20.208 109.796 19.92 111.012 19.92C112.228 19.92 113.324 20.208 114.3 20.784C115.292 21.344 116.076 22.128 116.652 23.136C117.244 24.128 117.54 25.28 117.54 26.592ZM114.66 26.592C114.66 25.776 114.492 25.072 114.156 24.48C113.836 23.872 113.396 23.4 112.836 23.064C112.292 22.728 111.684 22.56 111.012 22.56C110.34 22.56 109.724 22.728 109.164 23.064C108.62 23.4 108.18 23.872 107.844 24.48C107.524 25.072 107.364 25.776 107.364 26.592C107.364 27.392 107.524 28.096 107.844 28.704C108.18 29.296 108.62 29.76 109.164 30.096C109.724 30.432 110.34 30.6 111.012 30.6C111.684 30.6 112.292 30.432 112.836 30.096C113.396 29.76 113.836 29.296 114.156 28.704C114.492 28.096 114.66 27.392 114.66 26.592ZM126.708 19.92C127.828 19.92 128.828 20.208 129.708 20.784C130.604 21.344 131.308 22.12 131.82 23.112C132.348 24.104 132.612 25.256 132.612 26.568C132.612 27.88 132.348 29.04 131.82 30.048C131.308 31.04 130.612 31.824 129.732 32.4C128.868 32.96 127.892 33.24 126.804 33.24C126.164 33.24 125.564 33.136 125.004 32.928C124.444 32.72 123.948 32.456 123.516 32.136C123.1 31.816 122.772 31.496 122.532 31.176C122.308 30.84 122.196 30.56 122.196 30.336L122.94 30.024V36.336C122.94 36.752 122.804 37.096 122.532 37.368C122.26 37.656 121.916 37.8 121.5 37.8C121.084 37.8 120.74 37.664 120.468 37.392C120.196 37.12 120.06 36.768 120.06 36.336V21.624C120.06 21.208 120.196 20.864 120.468 20.592C120.74 20.304 121.084 20.16 121.5 20.16C121.916 20.16 122.26 20.304 122.532 20.592C122.804 20.864 122.94 21.208 122.94 21.624V22.8L122.532 22.584C122.532 22.376 122.644 22.128 122.868 21.84C123.092 21.536 123.396 21.24 123.78 20.952C124.164 20.648 124.604 20.4 125.1 20.208C125.612 20.016 126.148 19.92 126.708 19.92ZM126.348 22.56C125.644 22.56 125.028 22.736 124.5 23.088C123.972 23.44 123.556 23.92 123.252 24.528C122.964 25.12 122.82 25.8 122.82 26.568C122.82 27.32 122.964 28.008 123.252 28.632C123.556 29.24 123.972 29.72 124.5 30.072C125.028 30.424 125.644 30.6 126.348 30.6C127.052 30.6 127.66 30.424 128.172 30.072C128.7 29.72 129.108 29.24 129.396 28.632C129.7 28.008 129.852 27.32 129.852 26.568C129.852 25.8 129.7 25.12 129.396 24.528C129.108 23.92 128.7 23.44 128.172 23.088C127.66 22.736 127.052 22.56 126.348 22.56ZM141.778 19.92C142.898 19.92 143.898 20.208 144.778 20.784C145.674 21.344 146.378 22.12 146.89 23.112C147.418 24.104 147.682 25.256 147.682 26.568C147.682 27.88 147.418 29.04 146.89 30.048C146.378 31.04 145.682 31.824 144.802 32.4C143.938 32.96 142.962 33.24 141.874 33.24C141.234 33.24 140.634 33.136 140.074 32.928C139.514 32.72 139.018 32.456 138.586 32.136C138.17 31.816 137.842 31.496 137.602 31.176C137.378 30.84 137.266 30.56 137.266 30.336L138.01 30.024V36.336C138.01 36.752 137.874 37.096 137.602 37.368C137.33 37.656 136.986 37.8 136.57 37.8C136.154 37.8 135.81 37.664 135.538 37.392C135.266 37.12 135.13 36.768 135.13 36.336V21.624C135.13 21.208 135.266 20.864 135.538 20.592C135.81 20.304 136.154 20.16 136.57 20.16C136.986 20.16 137.33 20.304 137.602 20.592C137.874 20.864 138.01 21.208 138.01 21.624V22.8L137.602 22.584C137.602 22.376 137.714 22.128 137.938 21.84C138.162 21.536 138.466 21.24 138.85 20.952C139.234 20.648 139.674 20.4 140.17 20.208C140.682 20.016 141.218 19.92 141.778 19.92ZM141.418 22.56C140.714 22.56 140.098 22.736 139.57 23.088C139.042 23.44 138.626 23.92 138.322 24.528C138.034 25.12 137.89 25.8 137.89 26.568C137.89 27.32 138.034 28.008 138.322 28.632C138.626 29.24 139.042 29.72 139.57 30.072C140.098 30.424 140.714 30.6 141.418 30.6C142.122 30.6 142.73 30.424 143.242 30.072C143.77 29.72 144.178 29.24 144.466 28.632C144.77 28.008 144.922 27.32 144.922 26.568C144.922 25.8 144.77 25.12 144.466 24.528C144.178 23.92 143.77 23.44 143.242 23.088C142.73 22.736 142.122 22.56 141.418 22.56ZM159.729 20.16C160.145 20.16 160.489 20.304 160.761 20.592C161.033 20.864 161.169 21.208 161.169 21.624V31.824C161.169 33.296 160.889 34.464 160.329 35.328C159.785 36.208 159.049 36.84 158.121 37.224C157.193 37.608 156.153 37.8 155.001 37.8C154.489 37.8 153.945 37.76 153.369 37.68C152.793 37.6 152.321 37.48 151.953 37.32C151.473 37.112 151.137 36.848 150.945 36.528C150.769 36.224 150.737 35.896 150.849 35.544C150.993 35.08 151.225 34.76 151.545 34.584C151.865 34.424 152.201 34.408 152.553 34.536C152.809 34.616 153.145 34.736 153.561 34.896C153.977 35.072 154.457 35.16 155.001 35.16C155.737 35.16 156.345 35.056 156.825 34.848C157.321 34.656 157.689 34.32 157.929 33.84C158.185 33.376 158.313 32.736 158.313 31.92V30.312L158.817 30.888C158.545 31.416 158.201 31.856 157.785 32.208C157.385 32.544 156.905 32.8 156.345 32.976C155.785 33.152 155.145 33.24 154.425 33.24C153.577 33.24 152.833 33.048 152.193 32.664C151.569 32.264 151.081 31.72 150.729 31.032C150.377 30.328 150.201 29.528 150.201 28.632V21.624C150.201 21.208 150.337 20.864 150.609 20.592C150.881 20.304 151.225 20.16 151.641 20.16C152.057 20.16 152.401 20.304 152.673 20.592C152.945 20.864 153.081 21.208 153.081 21.624V27.768C153.081 28.808 153.305 29.544 153.753 29.976C154.217 30.392 154.857 30.6 155.673 30.6C156.233 30.6 156.705 30.496 157.089 30.288C157.473 30.064 157.769 29.744 157.977 29.328C158.185 28.896 158.289 28.376 158.289 27.768V21.624C158.289 21.208 158.425 20.864 158.697 20.592C158.969 20.304 159.313 20.16 159.729 20.16ZM172.765 16.176C172.989 16.176 173.221 16.24 173.461 16.368C173.717 16.48 173.909 16.632 174.037 16.824L179.869 25.8L178.669 25.752L184.645 16.824C184.949 16.392 185.341 16.176 185.821 16.176C186.205 16.176 186.549 16.312 186.853 16.584C187.157 16.856 187.309 17.208 187.309 17.64V31.536C187.309 31.952 187.173 32.304 186.901 32.592C186.629 32.864 186.269 33 185.821 33C185.373 33 185.005 32.864 184.717 32.592C184.445 32.304 184.309 31.952 184.309 31.536V20.232L185.245 20.448L180.349 27.912C180.205 28.088 180.021 28.24 179.797 28.368C179.589 28.496 179.373 28.552 179.149 28.536C178.941 28.552 178.725 28.496 178.501 28.368C178.293 28.24 178.117 28.088 177.973 27.912L173.389 20.664L174.013 19.392V31.536C174.013 31.952 173.885 32.304 173.629 32.592C173.373 32.864 173.037 33 172.621 33C172.221 33 171.893 32.864 171.637 32.592C171.381 32.304 171.253 31.952 171.253 31.536V17.64C171.253 17.24 171.397 16.896 171.685 16.608C171.989 16.32 172.349 16.176 172.765 16.176ZM201.189 19.92C201.605 19.92 201.949 20.056 202.221 20.328C202.493 20.6 202.629 20.952 202.629 21.384V31.536C202.629 31.952 202.493 32.304 202.221 32.592C201.949 32.864 201.605 33 201.189 33C200.773 33 200.429 32.864 200.157 32.592C199.885 32.304 199.749 31.952 199.749 31.536V30.36L200.277 30.576C200.277 30.784 200.165 31.04 199.941 31.344C199.717 31.632 199.413 31.92 199.029 32.208C198.645 32.496 198.189 32.744 197.661 32.952C197.149 33.144 196.589 33.24 195.981 33.24C194.877 33.24 193.877 32.96 192.981 32.4C192.085 31.824 191.373 31.04 190.845 30.048C190.333 29.04 190.077 27.888 190.077 26.592C190.077 25.28 190.333 24.128 190.845 23.136C191.373 22.128 192.077 21.344 192.957 20.784C193.837 20.208 194.813 19.92 195.885 19.92C196.573 19.92 197.205 20.024 197.781 20.232C198.357 20.44 198.853 20.704 199.269 21.024C199.701 21.344 200.029 21.672 200.253 22.008C200.493 22.328 200.613 22.6 200.613 22.824L199.749 23.136V21.384C199.749 20.968 199.885 20.624 200.157 20.352C200.429 20.064 200.773 19.92 201.189 19.92ZM196.341 30.6C197.045 30.6 197.661 30.424 198.189 30.072C198.717 29.72 199.125 29.24 199.413 28.632C199.717 28.024 199.869 27.344 199.869 26.592C199.869 25.824 199.717 25.136 199.413 24.528C199.125 23.92 198.717 23.44 198.189 23.088C197.661 22.736 197.045 22.56 196.341 22.56C195.653 22.56 195.045 22.736 194.517 23.088C193.989 23.44 193.573 23.92 193.269 24.528C192.981 25.136 192.837 25.824 192.837 26.592C192.837 27.344 192.981 28.024 193.269 28.632C193.573 29.24 193.989 29.72 194.517 30.072C195.045 30.424 195.653 30.6 196.341 30.6ZM212.612 19.92C213.796 19.92 214.692 20.168 215.3 20.664C215.924 21.16 216.348 21.824 216.572 22.656C216.812 23.472 216.932 24.384 216.932 25.392V31.536C216.932 31.952 216.796 32.304 216.524 32.592C216.252 32.864 215.908 33 215.492 33C215.076 33 214.732 32.864 214.46 32.592C214.188 32.304 214.052 31.952 214.052 31.536V25.392C214.052 24.864 213.98 24.392 213.836 23.976C213.708 23.544 213.468 23.2 213.116 22.944C212.764 22.688 212.26 22.56 211.604 22.56C210.964 22.56 210.42 22.688 209.972 22.944C209.54 23.2 209.204 23.544 208.964 23.976C208.74 24.392 208.628 24.864 208.628 25.392V31.536C208.628 31.952 208.492 32.304 208.22 32.592C207.948 32.864 207.604 33 207.188 33C206.772 33 206.428 32.864 206.156 32.592C205.884 32.304 205.748 31.952 205.748 31.536V21.624C205.748 21.208 205.884 20.864 206.156 20.592C206.428 20.304 206.772 20.16 207.188 20.16C207.604 20.16 207.948 20.304 208.22 20.592C208.492 20.864 208.628 21.208 208.628 21.624V22.656L208.268 22.584C208.412 22.312 208.62 22.024 208.892 21.72C209.164 21.4 209.484 21.104 209.852 20.832C210.22 20.56 210.636 20.344 211.1 20.184C211.564 20.008 212.068 19.92 212.612 19.92Z" fill="#2B2B2B"/>
<defs>
<filter id="filter0_dii_26_23" x="0" y="3.58618" width="75.6252" height="50.4138" filterUnits="userSpaceOnUse" color-interpolation-filters="sRGB">
<feFlood flood-opacity="0" result="BackgroundImageFix"/>
<feColorMatrix in="SourceAlpha" type="matrix" values="0 0 0 0 0 0 0 0 0 0 0 0 0 0 0 0 0 0 127 0" result="hardAlpha"/>
<feOffset dy="2"/>
<feGaussianBlur stdDeviation="2"/>
<feComposite in2="hardAlpha" operator="out"/>
<feColorMatrix type="matrix" values="0 0 0 0 0 0 0 0 0 0 0 0 0 0 0 0 0 0 0.25 0"/>
<feBlend mode="normal" in2="BackgroundImageFix" result="effect1_dropShadow_26_23"/>
<feBlend mode="normal" in="SourceGraphic" in2="effect1_dropShadow_26_23" result="shape"/>
<feColorMatrix in="SourceAlpha" type="matrix" values="0 0 0 0 0 0 0 0 0 0 0 0 0 0 0 0 0 0 127 0" result="hardAlpha"/>
<feOffset dy="-4"/>
<feGaussianBlur stdDeviation="2"/>
<feComposite in2="hardAlpha" operator="arithmetic" k2="-1" k3="1"/>
<feColorMatrix type="matrix" values="0 0 0 0 0.394138 0 0 0 0 0.0994083 0 0 0 0 0.00970784 0 0 0 0.55 0"/>
<feBlend mode="normal" in2="shape" result="effect2_innerShadow_26_23"/>
<feColorMatrix in="SourceAlpha" type="matrix" values="0 0 0 0 0 0 0 0 0 0 0 0 0 0 0 0 0 0 127 0" result="hardAlpha"/>
<feOffset dy="5"/>
<feGaussianBlur stdDeviation="2"/>
<feComposite in2="hardAlpha" operator="arithmetic" k2="-1" k3="1"/>
<feColorMatrix type="matrix" values="0 0 0 0 1 0 0 0 0 1 0 0 0 0 1 0 0 0 0.34 0"/>
<feBlend mode="normal" in2="effect2_innerShadow_26_23" result="effect3_innerShadow_26_23"/>
</filter>
<filter id="filter1_dii_26_23" x="8.31702" y="-2" width="21.3914" height="23.3913" filterUnits="userSpaceOnUse" color-interpolation-filters="sRGB">
<feFlood flood-opacity="0" result="BackgroundImageFix"/>
<feColorMatrix in="SourceAlpha" type="matrix" values="0 0 0 0 0 0 0 0 0 0 0 0 0 0 0 0 0 0 127 0" result="hardAlpha"/>
<feOffset dy="2"/>
<feGaussianBlur stdDeviation="2"/>
<feComposite in2="hardAlpha" operator="out"/>
<feColorMatrix type="matrix" values="0 0 0 0 0 0 0 0 0 0 0 0 0 0 0 0 0 0 0.25 0"/>
<feBlend mode="normal" in2="BackgroundImageFix" result="effect1_dropShadow_26_23"/>
<feBlend mode="normal" in="SourceGraphic" in2="effect1_dropShadow_26_23" result="shape"/>
<feColorMatrix in="SourceAlpha" type="matrix" values="0 0 0 0 0 0 0 0 0 0 0 0 0 0 0 0 0 0 127 0" result="hardAlpha"/>
<feOffset dy="-4"/>
<feGaussianBlur stdDeviation="2"/>
<feComposite in2="hardAlpha" operator="arithmetic" k2="-1" k3="1"/>
<feColorMatrix type="matrix" values="0 0 0 0 0 0 0 0 0 0 0 0 0 0 0 0 0 0 0.25 0"/>
<feBlend mode="normal" in2="shape" result="effect2_innerShadow_26_23"/>
<feColorMatrix in="SourceAlpha" type="matrix" values="0 0 0 0 0 0 0 0 0 0 0 0 0 0 0 0 0 0 127 0" result="hardAlpha"/>
<feOffset dy="5"/>
<feGaussianBlur stdDeviation="2"/>
<feComposite in2="hardAlpha" operator="arithmetic" k2="-1" k3="1"/>
<feColorMatrix type="matrix" values="0 0 0 0 1 0 0 0 0 1 0 0 0 0 1 0 0 0 0.34 0"/>
<feBlend mode="normal" in2="effect2_innerShadow_26_23" result="effect3_innerShadow_26_23"/>
</filter>
</defs>
</svg>
