<svg width="80" height="80" viewBox="0 0 80 80" fill="none" xmlns="http://www.w3.org/2000/svg">
<path d="M0 8C0 3.58172 3.58172 0 8 0H72C76.4183 0 80 3.58172 80 8V72C80 76.4183 76.4183 80 72 80H8C3.58172 80 0 76.4183 0 72V8Z" fill="#F5DE19"/>
<path d="M52.0225 59.6875C52.6189 60.899 53.5455 61.9173 54.6956 62.625C55.8456 63.3327 57.1722 63.701 58.5225 63.6875C61.2475 63.6875 62.99 62.325 62.99 60.4375C62.99 58.1875 61.2 57.3825 58.2 56.07L56.555 55.365C51.805 53.3425 48.655 50.81 48.655 45.455C48.655 40.5225 52.405 36.765 58.2875 36.765C60.1918 36.6275 62.0944 37.0537 63.758 37.9904C65.4216 38.9271 66.7726 40.333 67.6425 42.0325L62.5 45.32C62.165 44.4773 61.5818 43.7563 60.8277 43.2527C60.0736 42.7491 59.1842 42.4866 58.2775 42.5C57.8819 42.4604 57.4824 42.5036 57.1044 42.627C56.7265 42.7503 56.3783 42.951 56.0822 43.2163C55.7861 43.4816 55.5485 43.8057 55.3846 44.1679C55.2206 44.5301 55.1339 44.9224 55.13 45.32C55.13 47.2925 56.3525 48.0925 59.175 49.32L60.82 50.025C66.41 52.4225 69.57 54.865 69.57 60.3575C69.57 66.28 64.9175 69.525 58.67 69.525C56.2358 69.6801 53.8086 69.1274 51.6815 67.9337C49.5544 66.7399 47.8183 64.9561 46.6825 62.7975L52.0225 59.6875ZM28.785 60.2575C29.8175 62.09 30.7575 63.64 33.0175 63.64C35.1775 63.64 36.5425 62.795 36.5425 59.5075V37.14H43.12V59.595C43.12 66.405 39.12 69.505 33.2975 69.505C31.2394 69.6175 29.1954 69.1046 27.4342 68.0337C25.673 66.9628 24.2771 65.3841 23.43 63.505L28.785 60.2575Z" fill="black"/>
</svg>
