<svg width="80" height="80" viewBox="0 0 80 80" fill="none" xmlns="http://www.w3.org/2000/svg">
<g clip-path="url(#clip0_50_271)">
<path d="M0 40V80H80V0H0V40ZM48.5433 65.42C48.9033 65.2167 50.2467 64.44 51.5167 63.7033L53.8167 62.37L54.3 63.0833C54.9733 64.11 56.4433 65.52 57.3333 65.99C59.8867 67.3367 63.39 67.1467 65.1167 65.5967C65.445 65.3209 65.7088 64.9765 65.8896 64.5878C66.0705 64.1991 66.1639 63.7754 66.1633 63.3467L66.16 63.19V63.1967C66.16 62.27 66.0433 61.8633 65.56 61.1633C64.94 60.2767 63.67 59.53 60.0633 57.9633C55.9367 56.1867 54.16 55.0833 52.5333 53.33C51.5333 52.1932 50.7908 50.8538 50.3567 49.4033L50.3367 49.33C50.0333 48.2 49.9567 45.3667 50.1967 44.2267C51.0467 40.2367 54.0567 37.46 58.4 36.6333C59.81 36.3667 63.0867 36.4667 64.47 36.81C66.5033 37.3167 68.05 38.2233 69.4733 39.6967C70.21 40.4833 71.3033 41.9167 71.39 42.2633C71.4167 42.3633 67.9367 44.6967 65.83 46.0067C65.7533 46.0567 65.4467 45.7267 65.1067 45.22C64.0733 43.72 62.9967 43.0733 61.3467 42.96C58.92 42.7933 57.36 44.0633 57.3733 46.1833L57.37 46.3067C57.37 46.81 57.4967 47.2833 57.72 47.6967L57.7133 47.68C58.2467 48.7833 59.24 49.4467 62.3467 50.79C68.0767 53.2567 70.5267 54.88 72.05 57.19C73.75 59.7667 74.1333 63.8833 72.9767 66.9433C71.71 70.27 68.56 72.53 64.1267 73.2767C62.7567 73.52 59.5067 73.4833 58.0333 73.2167C54.82 72.6433 51.7733 71.0567 49.8933 68.9733C49.1567 68.1633 47.72 66.04 47.81 65.89C48.041 65.7134 48.2863 65.5561 48.5433 65.42ZM17.5267 40.2167C17.5267 38.4367 17.5633 36.95 17.6133 36.9167C17.6533 36.8633 23.99 36.8367 31.67 36.85L45.6533 36.89L45.69 40.1533L45.7167 43.43H35.3V73.0167H27.9333V43.43H17.5267V40.2167Z" fill="#1677C7"/>
</g>
<defs>
<clipPath id="clip0_50_271">
<rect width="80" height="80" rx="8" fill="white"/>
</clipPath>
</defs>
</svg>
