<svg width="80" height="80" viewBox="0 0 80 80" fill="none" xmlns="http://www.w3.org/2000/svg">
<g clip-path="url(#clip0_49_60)">
<path d="M0 69.6847C0 75.3822 4.61844 80 10.3153 80H69.6844C75.3822 80 80 75.3816 80 69.6847V10.3156C80 4.61781 75.3816 0 69.6847 0H10.3156C4.61781 0 0 4.61844 0 10.3153V69.6844V69.6847Z" fill="#563D7C"/>
<path d="M33.1744 35.3869V24.0578H43.1466C44.0966 24.0578 45.0122 24.1369 45.8941 24.2953C46.7759 24.4534 47.5562 24.7359 48.2347 25.1431C48.9128 25.5503 49.4556 26.1156 49.8628 26.8391C50.2697 27.5628 50.4734 28.49 50.4734 29.6203C50.4734 31.6556 49.8628 33.1256 48.6416 34.03C47.4206 34.9347 45.8603 35.3869 43.9606 35.3869H33.1744ZM22.5234 15.7812V64.2188H45.9959C48.1669 64.2188 50.2813 63.9475 52.3391 63.4047C54.3969 62.8619 56.2284 62.0253 57.8341 60.8947C59.4394 59.7641 60.7172 58.3053 61.6669 56.5191C62.6169 54.7325 63.0916 52.6181 63.0916 50.1759C63.0916 47.1456 62.3566 44.5566 60.8869 42.4084C59.4169 40.26 57.1894 38.7562 54.2044 37.8969C56.3753 36.8569 58.015 35.5225 59.1231 33.8944C60.2309 32.2662 60.785 30.2313 60.785 27.7888C60.785 25.5275 60.4119 23.6281 59.6656 22.0903C58.9194 20.5528 57.8678 19.3203 56.5109 18.3931C55.1544 17.4659 53.5263 16.7987 51.6266 16.3919C49.7272 15.9847 47.6241 15.7812 45.3175 15.7812H22.5234ZM33.1744 55.9422V42.6456H44.7747C47.0813 42.6456 48.9356 43.1769 50.3378 44.24C51.7397 45.3028 52.4409 47.0778 52.4409 49.5653C52.4409 50.8319 52.2259 51.8719 51.7963 52.6859C51.3666 53.5 50.79 54.1447 50.0663 54.6194C49.3428 55.0944 48.5059 55.4334 47.5562 55.6372C46.6062 55.8403 45.6116 55.9422 44.5713 55.9422H33.1744Z" fill="white"/>
</g>
<defs>
<clipPath id="clip0_49_60">
<rect width="80" height="80" fill="white"/>
</clipPath>
</defs>
</svg>
