<svg width="71" height="80" viewBox="0 0 71 80" fill="none" xmlns="http://www.w3.org/2000/svg">
<g clip-path="url(#clip0_49_48)">
<path d="M6.45925 72.0029L0 0H71L64.5321 71.9914L35.4569 80L6.45925 72.0029Z" fill="#1572B6"/>
<path d="M35.5 69.645L53.6272 63.9825L57.8916 10.1525H35.5V69.645Z" fill="#33A9DC"/>
<path d="M35.5 32.9775H44.5747L45.2004 25.065H35.5V17.3375H52.6953L52.5311 19.41L50.8471 40.705H35.5V32.9775Z" fill="white"/>
<path d="M35.5422 53.045L35.5111 53.055L27.8742 50.73L27.386 44.5675H20.5013L21.462 56.7L35.5089 61.095L35.5422 61.085V53.045Z" fill="#EBEBEB"/>
<path d="M43.9912 40.3775L43.1658 50.725L35.5177 53.05V61.09L49.5757 56.7L49.68 55.395L50.8715 40.3775H43.9912Z" fill="white"/>
<path d="M35.5244 17.3375V25.065H18.9592L18.8217 23.3275L18.5088 19.41L18.3446 17.3375H35.5244ZM35.5 32.9775V40.705H27.9585L27.8209 38.9675L27.5103 35.05L27.3461 32.9775H35.5Z" fill="#EBEBEB"/>
</g>
<defs>
<clipPath id="clip0_49_48">
<rect width="71" height="80" fill="white"/>
</clipPath>
</defs>
</svg>
