<svg width="179" height="126" viewBox="0 0 179 126" fill="none" xmlns="http://www.w3.org/2000/svg">
<g filter="url(#filter0_dii_5_120)">
<path d="M88.8647 21C94.9853 21 100.466 22.098 105.284 24.3193H105.283C110.082 26.5017 113.918 29.5104 116.756 33.3564H116.757C118.398 35.5562 119.602 37.9333 120.362 40.4844C120.929 42.3873 120.379 44.1863 119.22 45.4785C118.074 46.7559 116.335 47.5459 114.456 47.5459C111.022 47.5458 108.466 44.8984 107.15 42.1406C106.112 39.9648 104.482 38.1354 102.225 36.6543C98.5414 34.237 93.985 33 88.5015 33C84.4879 33 81.0221 33.648 78.0815 34.916L78.0825 34.917C75.1583 36.1909 72.9134 37.9223 71.3052 40.0947C69.7397 42.2501 68.9557 44.6922 68.9556 47.4541C68.9556 49.767 69.502 51.6996 70.5522 53.2959L70.7681 53.6006C71.8661 55.1084 73.2399 56.3828 74.8979 57.4258H74.897C76.7132 58.5382 78.6163 59.4606 80.6069 60.1934C82.3923 60.8235 84.0454 61.3483 85.5669 61.7686L86.2104 61.9424L86.2163 61.9434L95.6636 64.4873C98.1289 65.1345 100.861 66.0248 103.855 67.1553H103.854C106.934 68.3068 109.871 69.8759 112.662 71.8594L113.196 72.2402C115.836 74.1761 118.028 76.6104 119.77 79.5332C121.671 82.7223 122.592 86.5916 122.592 91.0908C122.592 96.3063 121.223 101.042 118.477 105.271L118.476 105.271C115.755 109.509 111.783 112.852 106.613 115.312C101.445 117.786 95.2136 119 87.9556 119C81.1838 119 75.2673 117.907 70.2339 115.688L70.2319 115.687C65.2415 113.472 61.2765 110.367 58.3735 106.359L58.3706 106.355C56.7226 104.055 55.4853 101.541 54.6597 98.8164C53.4322 94.7657 56.8957 91.3633 60.7769 91.3633C64.3818 91.3633 67.0272 94.2004 68.3218 97.1455C68.8529 98.3537 69.5516 99.442 70.4194 100.414L70.7944 100.81C72.7027 102.755 75.0726 104.233 77.9243 105.238H77.9233C81.0202 106.289 84.362 106.818 87.9556 106.818C92.1501 106.818 95.8829 106.139 99.1694 104.801C102.459 103.432 105.023 101.557 106.901 99.1953C108.753 96.8361 109.683 94.0884 109.683 90.9092C109.683 88.0143 108.879 85.7509 107.345 84.0283C105.731 82.2164 103.587 80.7193 100.879 79.5547C98.1069 78.3622 95.1043 77.3162 91.8706 76.418L91.8628 76.416L80.4087 73.1436L80.4067 73.1426C73.0309 71.022 67.1222 67.9752 62.7358 63.9648C58.2661 59.8781 56.0474 54.5248 56.0474 48C56.0474 42.5961 57.5121 37.8401 60.4653 33.7754L60.4663 33.7744C63.4253 29.7139 67.3848 26.5777 72.3159 24.3613C77.2787 22.114 82.8008 21 88.8647 21Z" fill="#F57627" stroke="#F57627" stroke-width="2"/>
<path d="M37.3198 71C43.4403 71 48.9207 69.902 53.7388 67.6807H53.7378C58.5372 65.4983 62.3729 62.4896 65.2114 58.6436C66.8522 56.4438 68.0562 54.0666 68.8159 51.5156C69.3826 49.6127 68.8333 47.8137 67.6743 46.5215C66.5287 45.2443 64.7896 44.4542 62.9106 44.4541C59.4765 44.4541 56.9197 47.1015 55.604 49.8594C54.5661 52.0351 52.937 53.8647 50.6802 55.3457C46.9965 57.7631 42.4393 59 36.9556 59C32.9424 59 29.477 58.3518 26.5366 57.084C23.6156 55.8114 21.372 54.0821 19.7642 51.9131L19.7651 51.9121C19.1482 51.0638 18.655 50.1745 18.2827 49.2441C17.147 46.4053 14.7648 43.4617 11.2788 43.2871C7.68262 43.1073 4.26154 46.0584 5.14502 49.9121C5.8406 52.9461 7.09955 55.7198 8.91943 58.2246L8.92041 58.2256C11.8799 62.2869 15.8406 65.4231 20.7729 67.6396C25.7352 69.8863 31.2567 71 37.3198 71Z" fill="#F57627" stroke="#F57627" stroke-width="2"/>
<path d="M140.956 74C134.835 74 129.355 75.098 124.537 77.3193H124.538C119.738 79.5017 115.903 82.5104 113.064 86.3564C111.423 88.5562 110.219 90.9334 109.46 93.4844C108.893 95.3873 109.442 97.1863 110.601 98.4785C111.747 99.7557 113.486 100.546 115.365 100.546C118.799 100.546 121.356 97.8985 122.672 95.1406C123.71 92.9649 125.339 91.1353 127.595 89.6543C131.279 87.2369 135.836 86 141.32 86C145.333 86 148.799 86.6482 151.739 87.916C154.66 89.1886 156.904 90.9179 158.511 93.0869L158.51 93.0879C159.127 93.9362 159.621 94.8255 159.993 95.7559C161.129 98.5947 163.511 101.538 166.997 101.713C170.593 101.893 174.014 98.9416 173.131 95.0879C172.435 92.0539 171.176 89.2802 169.356 86.7754L169.355 86.7744C166.396 82.7131 162.435 79.5769 157.503 77.3604C152.54 75.1137 147.019 74 140.956 74Z" fill="#F57627" stroke="#F57627" stroke-width="2"/>
</g>
<g filter="url(#filter1_dii_5_120)">
<circle cx="40.0015" cy="19.5" r="17.5" fill="#27A6F5"/>
</g>
<defs>
<filter id="filter0_dii_5_120" x="0" y="16" width="178.276" height="110" filterUnits="userSpaceOnUse" color-interpolation-filters="sRGB">
<feFlood flood-opacity="0" result="BackgroundImageFix"/>
<feColorMatrix in="SourceAlpha" type="matrix" values="0 0 0 0 0 0 0 0 0 0 0 0 0 0 0 0 0 0 127 0" result="hardAlpha"/>
<feOffset dy="2"/>
<feGaussianBlur stdDeviation="2"/>
<feComposite in2="hardAlpha" operator="out"/>
<feColorMatrix type="matrix" values="0 0 0 0 0 0 0 0 0 0 0 0 0 0 0 0 0 0 0.25 0"/>
<feBlend mode="normal" in2="BackgroundImageFix" result="effect1_dropShadow_5_120"/>
<feBlend mode="normal" in="SourceGraphic" in2="effect1_dropShadow_5_120" result="shape"/>
<feColorMatrix in="SourceAlpha" type="matrix" values="0 0 0 0 0 0 0 0 0 0 0 0 0 0 0 0 0 0 127 0" result="hardAlpha"/>
<feOffset dy="-4"/>
<feGaussianBlur stdDeviation="2"/>
<feComposite in2="hardAlpha" operator="arithmetic" k2="-1" k3="1"/>
<feColorMatrix type="matrix" values="0 0 0 0 0.394138 0 0 0 0 0.0994083 0 0 0 0 0.00970784 0 0 0 0.55 0"/>
<feBlend mode="normal" in2="shape" result="effect2_innerShadow_5_120"/>
<feColorMatrix in="SourceAlpha" type="matrix" values="0 0 0 0 0 0 0 0 0 0 0 0 0 0 0 0 0 0 127 0" result="hardAlpha"/>
<feOffset dy="5"/>
<feGaussianBlur stdDeviation="2"/>
<feComposite in2="hardAlpha" operator="arithmetic" k2="-1" k3="1"/>
<feColorMatrix type="matrix" values="0 0 0 0 1 0 0 0 0 1 0 0 0 0 1 0 0 0 0.34 0"/>
<feBlend mode="normal" in2="effect2_innerShadow_5_120" result="effect3_innerShadow_5_120"/>
</filter>
<filter id="filter1_dii_5_120" x="18.5015" y="-2" width="43" height="45" filterUnits="userSpaceOnUse" color-interpolation-filters="sRGB">
<feFlood flood-opacity="0" result="BackgroundImageFix"/>
<feColorMatrix in="SourceAlpha" type="matrix" values="0 0 0 0 0 0 0 0 0 0 0 0 0 0 0 0 0 0 127 0" result="hardAlpha"/>
<feOffset dy="2"/>
<feGaussianBlur stdDeviation="2"/>
<feComposite in2="hardAlpha" operator="out"/>
<feColorMatrix type="matrix" values="0 0 0 0 0 0 0 0 0 0 0 0 0 0 0 0 0 0 0.25 0"/>
<feBlend mode="normal" in2="BackgroundImageFix" result="effect1_dropShadow_5_120"/>
<feBlend mode="normal" in="SourceGraphic" in2="effect1_dropShadow_5_120" result="shape"/>
<feColorMatrix in="SourceAlpha" type="matrix" values="0 0 0 0 0 0 0 0 0 0 0 0 0 0 0 0 0 0 127 0" result="hardAlpha"/>
<feOffset dy="-4"/>
<feGaussianBlur stdDeviation="2"/>
<feComposite in2="hardAlpha" operator="arithmetic" k2="-1" k3="1"/>
<feColorMatrix type="matrix" values="0 0 0 0 0 0 0 0 0 0 0 0 0 0 0 0 0 0 0.25 0"/>
<feBlend mode="normal" in2="shape" result="effect2_innerShadow_5_120"/>
<feColorMatrix in="SourceAlpha" type="matrix" values="0 0 0 0 0 0 0 0 0 0 0 0 0 0 0 0 0 0 127 0" result="hardAlpha"/>
<feOffset dy="5"/>
<feGaussianBlur stdDeviation="2"/>
<feComposite in2="hardAlpha" operator="arithmetic" k2="-1" k3="1"/>
<feColorMatrix type="matrix" values="0 0 0 0 1 0 0 0 0 1 0 0 0 0 1 0 0 0 0.34 0"/>
<feBlend mode="normal" in2="effect2_innerShadow_5_120" result="effect3_innerShadow_5_120"/>
</filter>
</defs>
</svg>
