<svg width="71" height="80" viewBox="0 0 71 80" fill="none" xmlns="http://www.w3.org/2000/svg">
<g clip-path="url(#clip0_49_43)">
<path d="M6.4616 72.0029L0 0H71L64.5298 71.9914L35.4569 80L6.4616 72.0029Z" fill="#E44F26"/>
<path d="M35.5 69.645L53.6272 63.9825L57.8916 10.1525H35.5V69.645Z" fill="#F1662A"/>
<path d="M35.5 33.5175H26.4253L25.7996 25.605H35.5V17.8775H18.3047L18.4689 19.9525L20.1529 41.245H35.5V33.5175ZM35.5 53.585L35.4689 53.595L27.832 51.2725L27.3439 45.11H20.4591L21.4198 57.24L35.4689 61.635L35.5 61.625V53.585Z" fill="#EBEBEB"/>
<path d="M35.4756 33.5175V41.245H43.9201L43.1258 51.2675L35.4756 53.5925V61.6325L49.5358 57.24L49.6379 55.935L51.2487 35.5925L51.4173 33.5175H35.4756ZM35.4756 17.8775V25.605H52.0408L52.1783 23.87L52.4912 19.9525L52.6554 17.8775H35.4756Z" fill="white"/>
</g>
<defs>
<clipPath id="clip0_49_43">
<rect width="71" height="80" fill="white"/>
</clipPath>
</defs>
</svg>
