<svg width="118" height="95" viewBox="0 0 118 95" fill="none" xmlns="http://www.w3.org/2000/svg">
<g clip-path="url(#clip0_156_411)">
<path d="M79.9985 30.2495L66.9685 34.4867L55.6327 39.4693L52.4613 40.3032C51.6536 41.0683 50.8067 41.8432 49.8908 42.6278C48.8862 43.4909 47.9506 44.2757 47.2315 44.8445C46.4338 45.4723 45.2519 46.6493 44.6512 47.3946C43.7549 48.5127 43.0458 49.6995 42.7405 50.6118C42.1988 52.2596 42.4648 53.927 43.5088 55.467C44.8482 57.4286 47.5173 59.4295 50.6294 60.7928C52.2151 61.4894 54.8841 62.3819 56.8932 62.882C60.2318 63.7256 66.6927 64.6378 70.2481 64.7752C70.9669 64.8046 71.9322 64.8046 71.9715 64.7752C72.0504 64.726 72.6019 63.6766 73.2422 62.3722C75.4286 57.9289 77.0044 53.7603 77.8612 50.1999C78.3733 48.0422 78.777 45.1682 79.0428 41.7649C79.1119 40.8134 79.1414 37.6257 79.0823 36.5467C78.9936 34.7812 78.836 33.3493 78.59 31.9466C78.5505 31.7406 78.5405 31.5542 78.5603 31.5444C78.5996 31.515 78.7178 31.4758 80.3232 31.0147L79.9983 30.2498V30.2495H79.9985V30.2495ZM77.0242 31.9857C77.1424 31.9857 77.4574 34.9968 77.5362 36.8997C77.556 37.3018 77.546 37.5666 77.5263 37.5666C77.4476 37.5666 75.8619 36.6349 74.7295 35.9288C73.7445 35.3108 71.8733 34.0749 71.5779 33.8395C71.4792 33.7709 71.489 33.7611 72.2967 33.4864C73.6656 33.0253 76.9159 31.9857 77.0242 31.9857ZM70.3861 34.1632C70.4748 34.1632 70.7011 34.2905 71.2429 34.6241C73.2717 35.8894 76.0294 37.4196 77.2112 37.9297C77.5756 38.0866 77.6149 38.0276 76.7779 38.5966C74.9854 39.8128 72.7496 41.0094 70.0116 42.2158C69.5291 42.4316 69.1254 42.5983 69.1156 42.5983C69.0959 42.5983 69.1548 42.3533 69.2335 42.0589C69.8934 39.6165 70.2678 37.1448 70.2876 35.1635C70.2974 34.1826 70.2974 34.1826 70.3861 34.1534C70.3663 34.1632 70.3761 34.1632 70.3861 34.1632ZM69.0171 34.683C69.076 34.7417 69.0368 36.9389 68.9579 37.5372C68.7807 38.9692 68.5049 40.3031 68.052 41.8039C67.9436 42.1666 67.845 42.4709 67.8255 42.4904C67.7859 42.5394 66.4366 41.2251 65.9935 40.7151C65.2252 39.8323 64.6246 38.9495 64.1813 38.0864C63.9548 37.645 63.6003 36.782 63.6298 36.7525C63.7874 36.6446 68.9777 34.6438 69.0171 34.683ZM62.5759 37.2037C62.5857 37.2037 62.5955 37.2037 62.6055 37.2134C62.6252 37.2331 62.6942 37.3901 62.7533 37.5665C63.0684 38.4199 63.7774 39.6754 64.3882 40.4797C65.0579 41.3625 65.9345 42.304 66.6631 42.9219C66.8996 43.1181 67.1161 43.3044 67.1456 43.3339C67.2048 43.3928 67.2245 43.3829 65.6191 43.9911C63.7579 44.6973 61.7289 45.4034 59.4045 46.1488C58.8493 46.3271 58.2946 46.5069 57.7403 46.6883C57.6516 46.7178 57.6812 46.6687 57.9372 46.2667C59.0895 44.4717 60.8425 40.9505 61.8275 38.4591C61.9949 38.0275 62.1623 37.596 62.1919 37.4979C62.2313 37.3605 62.2805 37.3115 62.4085 37.2428C62.4774 37.2234 62.5464 37.2037 62.5759 37.2037ZM60.6063 38.0178C60.6358 38.0375 60.1335 39.0869 59.6411 40.0481C58.6857 41.9019 57.6417 43.7263 56.2432 45.943C56.0069 46.3255 55.7804 46.6787 55.7508 46.7179C55.7017 46.7866 55.6818 46.7669 55.5243 46.4629C55.1894 45.8057 54.9136 44.9621 54.7659 44.1872C54.6181 43.4221 54.6477 42.0882 54.8152 41.2644C54.9431 40.6563 54.9334 40.6661 55.2288 40.5189C56.4894 39.8814 60.5669 37.9786 60.6063 38.0178ZM77.5954 38.7044V39.1164C77.5954 41.3036 77.359 44.305 77.0142 46.4924C76.9551 46.8748 76.9057 47.1886 76.896 47.1985C76.896 47.1985 76.6104 47.1201 76.2756 47.0219C74.7983 46.5609 73.1929 45.8841 71.7451 45.0898C70.7896 44.5699 69.4011 43.7164 69.4406 43.6772C69.4502 43.6675 69.864 43.4517 70.3465 43.1966C72.2771 42.1962 74.1285 41.1173 75.7339 40.0482C76.3347 39.646 77.2406 38.9988 77.4378 38.8221L77.5954 38.7044ZM53.1704 41.6075C53.2097 41.6075 53.1999 41.686 53.1408 42.0391C53.1014 42.2942 53.0522 42.765 53.0326 43.0886C52.9536 44.5206 53.1902 45.58 53.8993 47.0316C54.0962 47.4338 54.2539 47.7673 54.2439 47.777C54.1749 47.8359 47.6552 49.7388 45.6065 50.2978C44.9959 50.4645 44.4642 50.6117 44.4246 50.6214C44.3558 50.6411 44.3459 50.6313 44.3754 50.4644C44.6019 49.0227 45.705 47.1395 47.2414 45.5504C48.2657 44.4912 49.0832 43.8733 50.4817 43.0787C51.4862 42.5099 53.0325 41.6567 53.1507 41.6174C53.1508 41.6075 53.1606 41.6075 53.1704 41.6075ZM68.5345 44.3441C68.5443 44.3343 68.7807 44.4619 69.0662 44.6286C71.1739 45.8449 74.1088 46.9729 76.6103 47.5515L76.8369 47.6006L76.5217 47.777C75.2119 48.5029 70.908 50.2879 66.5057 51.926C65.8654 52.1613 65.2351 52.3968 65.1168 52.4458C64.9986 52.4948 64.8902 52.5243 64.8902 52.5145C64.8902 52.5046 65.0676 52.1613 65.294 51.7396C66.5251 49.4445 67.7661 46.6491 68.3964 44.707C68.4754 44.5207 68.5245 44.354 68.5345 44.3441ZM66.9685 44.8542C66.9785 44.8642 66.8996 45.07 66.8011 45.3054C65.9443 47.3749 64.8214 49.631 63.3836 52.1615C63.0192 52.8089 62.7138 53.3288 62.7039 53.3288C62.6942 53.3288 62.3986 53.1521 62.0441 52.9364C59.956 51.6612 58.1045 50.0919 56.8932 48.5716L56.7159 48.3558L57.612 48.1106C60.8228 47.2377 63.5508 46.2961 66.2593 45.1388C66.6435 44.9818 66.9587 44.8542 66.9685 44.8542ZM76.6991 48.2381C76.7089 48.4637 76.2066 50.4843 75.7929 51.9456C75.4483 53.1716 75.1527 54.1329 74.6111 55.8297C74.3748 56.5753 74.1681 57.193 74.1581 57.193C74.1483 57.193 74.0892 57.1833 74.0301 57.1638C71.1051 56.6339 68.4853 55.8984 66.0231 54.9176C65.3336 54.6429 64.3487 54.2015 64.2897 54.1525C64.27 54.1327 64.861 53.8582 65.6095 53.5345C70.0906 51.5826 74.7392 49.3659 76.3347 48.4146C76.5217 48.2969 76.6695 48.2381 76.6991 48.2381ZM54.2341 49.0032C54.2538 49.0227 53.003 50.8177 51.2498 53.26C50.6393 54.1133 49.9302 55.1137 49.6643 55.4864C49.3984 55.8592 48.9946 56.4477 48.7681 56.8008L48.3542 57.4384L47.911 57.0657C47.389 56.634 46.483 55.7121 46.0792 55.202C45.2322 54.1527 44.6611 53.0443 44.4345 52.0341C44.3262 51.5632 44.3262 51.3277 44.4245 51.2985C44.5722 51.2592 47.2019 50.6413 49.6642 50.0723C51.0332 49.7585 52.6187 49.3858 53.19 49.2485C53.7613 49.1109 54.2243 49.0032 54.2341 49.0032ZM55.4947 49.4838L55.8097 49.8369C57.2281 51.4161 58.6759 52.5834 60.4289 53.6033C60.7442 53.78 60.9805 53.9368 60.9607 53.9468C60.8919 53.9958 54.8742 56.124 52.087 57.0852C50.5211 57.6345 49.2309 58.0758 49.2211 58.0758C49.2113 58.0758 49.1226 58.0171 49.024 57.9484L48.8468 57.8208L49.1324 57.409C50.0581 56.075 51.2205 54.6136 53.7516 51.573L55.4947 49.4838ZM63.3541 55.0843C63.3638 55.0746 63.7972 55.2314 64.3289 55.4278C65.6095 55.9083 66.6237 56.2123 67.983 56.5556C69.6573 56.9775 72.08 57.3894 73.5082 57.5071C73.7249 57.5266 73.843 57.5463 73.8036 57.5758C73.7345 57.615 72.2869 58.0956 71.2232 58.4291C69.5291 58.9587 64.3586 60.4789 60.1434 61.6855C59.3653 61.911 58.6955 62.0974 58.6562 62.1071C58.5578 62.1269 58.2327 62.0384 58.2327 61.9992C58.2327 61.9797 58.469 61.6757 58.7547 61.3422C60.1728 59.6551 61.5813 57.7719 62.7533 55.9868C63.0782 55.4962 63.3541 55.0941 63.3541 55.0843ZM61.6206 55.1335C61.6304 55.1432 60.9312 56.2613 59.7101 58.1837C59.188 58.9978 58.6069 59.9198 58.4 60.2435C58.203 60.5574 57.9076 61.0479 57.7403 61.3224L57.4546 61.8227L57.3069 61.7835C56.9522 61.6854 54.4606 60.8123 53.8007 60.5476C52.9832 60.2238 52.1362 59.8316 51.5058 59.4981C50.718 59.0763 49.7332 58.4485 49.8119 58.429C49.8316 58.4193 51.1809 58.0562 52.8059 57.6149C57.1197 56.4476 59.5129 55.7709 61.0789 55.2805C61.3646 55.1922 61.6108 55.1235 61.6206 55.1335ZM73.8823 57.9974H73.8921C73.9315 58.0955 72.3362 62.5093 71.7548 63.902C71.627 64.2159 71.5779 64.2945 71.5088 64.2845C71.3414 64.2748 69.027 63.9511 67.6185 63.7451C65.1662 63.3724 61.0494 62.6563 60.0153 62.421L59.779 62.372L61.2463 62.0383C64.398 61.3321 65.9147 60.9497 67.451 60.4789C69.3913 59.8904 71.3119 59.1547 73.252 58.2524C73.5573 58.115 73.8134 58.0072 73.8823 57.9974Z" fill="url(#paint0_linear_156_411)"/>
<path d="M66.5648 0.000441337C66.3481 -0.0288225 62.8517 1.22663 60.5964 2.13869C57.5531 3.3747 55.1895 4.55177 53.7318 5.57162C53.1902 5.95431 52.5105 6.631 52.4023 6.89577C52.363 6.99388 52.3432 7.11156 52.3432 7.22925L53.663 8.47494L56.8046 9.47538L64.2799 10.8094L72.8285 12.2708L72.9172 11.5352C72.8878 11.5352 72.868 11.5254 72.8387 11.5254L71.7156 11.3488L71.4893 10.9467C70.3271 8.90652 69.0467 6.37594 68.2983 4.66927C67.7172 3.34512 67.1657 1.81516 66.8603 0.716569C66.6928 0.0496061 66.6732 0.0103919 66.565 0.000622158V0.000395786H66.5648V0.000441337ZM66.407 0.500822H66.4172C66.4268 0.510501 66.4663 0.78532 66.5057 1.10881C66.673 2.48217 66.9785 3.8061 67.4611 5.23818C67.8254 6.31714 67.8254 6.25834 67.402 6.13075C66.3974 5.8562 61.8965 5.08132 58.6366 4.63015C58.1146 4.56145 57.6714 4.49283 57.6714 4.48306C57.632 4.44385 60.0252 3.19807 61.079 2.70778C62.4283 2.08971 66.1314 0.549806 66.407 0.500822ZM56.9129 4.89493L57.2971 5.02229C59.3849 5.72861 64.6342 6.7291 67.5299 6.96448C67.8548 6.99392 68.1307 7.02341 68.1404 7.02341C68.1502 7.03318 67.8746 7.18031 67.52 7.34699C66.1216 8.04339 64.5851 8.89675 63.5214 9.55395C63.2064 9.75002 62.9206 9.90706 62.8813 9.90706C62.8419 9.90706 62.6352 9.8678 62.4185 9.83835L62.0245 9.77942L61.0398 8.81814C59.3064 7.14101 57.9472 5.84634 57.4252 5.35582L56.9129 4.89493ZM56.5191 5.19892L57.9077 6.92526C58.666 7.87668 59.4342 8.80842 59.6018 9.0143C59.7691 9.22042 59.907 9.38723 59.8972 9.397C59.8578 9.4264 57.8882 9.0438 56.8441 8.80851C55.7706 8.56323 55.3274 8.44554 54.6675 8.23965L54.1258 8.06302V7.92562C54.1356 7.26842 54.9729 6.28765 56.391 5.2873L56.5191 5.19892ZM68.3178 7.55297C68.3573 7.55297 68.4064 7.64121 68.5246 7.90603C68.8594 8.64161 69.9036 10.623 70.1594 11.0055C70.2384 11.1331 70.3761 11.1429 68.9876 10.9173C65.6489 10.3777 64.5753 10.2013 64.5753 10.1817C64.5753 10.1719 64.6738 10.1032 64.8018 10.0345C65.836 9.46575 66.8799 8.73985 67.8058 7.96497C68.0323 7.77857 68.2391 7.60204 68.2784 7.57255C68.2882 7.55296 68.308 7.5432 68.3178 7.55297Z" fill="url(#paint1_linear_156_411)"/>
<path d="M52.471 6.75848C52.471 6.75848 52.2545 7.10192 52.4613 7.61198C52.5894 7.92574 52.9636 8.3082 53.3871 8.70062C53.3871 8.70062 57.7697 12.9574 58.3016 13.5656C60.7243 16.3511 61.7782 19.0975 61.8767 22.8836C61.9358 25.316 61.4728 27.4542 60.3205 29.9358C58.272 34.3888 53.9483 39.3029 47.2807 44.7563L48.2559 44.4326C48.8862 43.9617 49.7431 43.4617 51.7522 42.3631C56.3908 39.8324 61.6107 37.5078 68.0125 35.1146C77.2307 31.662 92.3881 27.6208 101.015 26.3067L101.912 26.1693L101.774 25.9535C100.986 24.7372 100.444 23.982 99.7942 23.1777C97.9034 20.8433 95.6087 18.9504 92.8017 17.381C88.941 15.2331 83.9475 13.5558 77.6248 12.3102C76.4331 12.0747 73.8133 11.6235 71.686 11.2999C67.1752 10.6036 64.26 10.1229 61.0493 9.57365C59.8971 9.3774 58.1734 9.08322 57.031 8.83807C56.4401 8.71043 55.3076 8.44566 54.4212 8.14162C53.7121 7.86685 52.6877 7.59221 52.471 6.75848ZM55.0122 9.21068C55.0219 9.201 55.1795 9.25966 55.3864 9.32837C55.7606 9.45574 56.2432 9.60291 56.8146 9.75995C57.2468 9.87836 57.6802 9.99279 58.1146 10.1032C58.7055 10.2502 59.1978 10.3876 59.2077 10.3876C59.2767 10.4563 60.2715 13.6242 60.6063 14.8405C60.7342 15.3016 60.8329 15.6938 60.823 15.6938C60.8129 15.7038 60.7047 15.5369 60.5767 15.3114C59.4244 13.2908 57.6024 11.2409 55.4947 9.59301C55.2191 9.39703 55.0122 9.22045 55.0122 9.21068ZM59.8577 10.5446C59.907 10.5446 60.1237 10.5741 60.3895 10.6328C62.0638 11.0055 65.0677 11.5745 66.9882 11.8982C67.3132 11.9471 67.5694 12.0061 67.5694 12.0256C67.5694 12.0453 67.451 12.1139 67.3033 12.1924C66.9784 12.3591 65.6684 13.1339 65.2352 13.4282C64.1419 14.154 63.1571 14.9387 62.4479 15.6448C62.1624 15.9293 61.916 16.1647 61.916 16.1647C61.916 16.1647 61.8571 15.998 61.8077 15.7919C61.4533 14.4286 60.7145 12.408 60.0448 10.9859C59.9365 10.7604 59.8478 10.5543 59.8478 10.5348C59.8478 10.5544 59.8478 10.5446 59.8577 10.5446ZM68.3867 12.163C68.4458 12.1825 68.5443 12.5161 68.7412 13.2516C69.1057 14.6739 69.2732 16.2629 69.2141 17.7439C69.1943 18.1559 69.1746 18.5383 69.1548 18.5875L69.1254 18.6855L68.6133 18.5188C67.5594 18.1853 65.8458 17.685 64.3784 17.2731C63.5411 17.0475 62.8617 16.8415 62.8617 16.822C62.8617 16.763 64.083 15.5468 64.6049 15.0859C65.5995 14.2128 68.298 12.1335 68.3867 12.163ZM69.0663 12.261C69.0959 12.2317 73.1437 12.9279 74.9854 13.2811C76.3545 13.5458 78.3439 13.9579 78.462 14.007C78.5211 14.0265 78.3142 14.1442 77.6543 14.4384C75.0543 15.6057 73.1239 16.6551 71.2036 17.9303C70.7013 18.2638 70.2777 18.5383 70.2679 18.5383C70.2581 18.5383 70.2482 18.254 70.2482 17.9106C70.2482 16.0471 69.874 14.1639 69.1844 12.5749C69.1155 12.418 69.0564 12.2709 69.0663 12.261ZM79.5355 14.3208C79.5651 14.3502 79.437 15.1448 79.3188 15.6155C78.9643 17.077 78.009 19.2448 76.8371 21.2848C76.6301 21.6477 76.443 21.942 76.4232 21.9517C76.4037 21.9615 76.1377 21.8143 75.8324 21.6378C74.69 20.9708 73.39 20.3431 71.9717 19.7545C71.5779 19.5879 71.233 19.4505 71.2232 19.431C71.1541 19.3721 74.3255 17.2829 75.9998 16.2825C77.3294 15.4782 79.4961 14.2815 79.5355 14.3208ZM80.2839 14.4385C80.3726 14.4385 82.1651 14.9289 83.1006 15.2036C85.4152 15.8902 88.0743 16.8612 89.8077 17.6458L90.5265 17.9696L90.0244 18.0872C85.7895 19.0582 82.1651 20.1765 78.6688 21.5889C78.3831 21.7065 78.127 21.8046 78.1075 21.8046C78.0877 21.8046 78.1862 21.5791 78.3143 21.3044C79.3681 19.0779 80.0477 16.7533 80.215 14.7719C80.225 14.5855 80.2543 14.4385 80.2839 14.4385ZM62.4381 18.5188C62.4676 18.4893 63.8366 18.8131 64.5753 19.0189C65.698 19.3329 68.0813 20.1272 68.0813 20.1862C68.0813 20.1959 67.8155 20.4216 67.5005 20.6963C66.2103 21.7654 64.9692 22.8932 63.482 24.3253C63.0388 24.7472 62.6646 25.0904 62.645 25.0904C62.6252 25.0904 62.6155 25.0314 62.6252 24.953C62.8517 23.3052 62.8026 21.1866 62.4874 19.0386C62.4577 18.7639 62.4283 18.5286 62.4381 18.5188ZM91.2063 18.5483C91.2258 18.5678 90.5759 19.5879 90.1623 20.1665C89.5715 21.01 88.7045 22.1284 86.7446 24.5804C85.7107 25.875 84.5484 27.3366 84.1645 27.8269C83.7703 28.3173 83.4455 28.7292 83.4355 28.7292C83.4257 28.7292 83.2978 28.5527 83.1598 28.337C82.0567 26.6891 80.7369 25.2473 79.171 23.9526C78.8755 23.7073 78.5507 23.4425 78.4423 23.364C78.3339 23.2856 78.2452 23.2071 78.2452 23.1974C78.2452 23.168 79.9194 22.4518 81.1901 21.9419C83.4159 21.0395 86.449 19.9606 88.7243 19.2642C89.916 18.8915 91.1865 18.5286 91.2063 18.5483ZM91.9646 18.7443C92.0039 18.7346 92.2404 18.8523 92.526 19.0189C94.9193 20.3822 97.2632 22.138 99.1149 23.9428C99.6368 24.4529 100.927 25.7868 100.907 25.7966C100.907 25.7966 100.454 25.8358 99.9224 25.875C95.7761 26.189 90.4677 27.0618 85.366 28.2878C85.0213 28.3662 84.7161 28.4349 84.6963 28.4349C84.6768 28.4349 85.0607 28.0524 85.5434 27.5915C88.5374 24.7176 89.9064 22.9031 91.5215 19.6663C91.7479 19.1858 91.945 18.7738 91.9646 18.7443C91.9548 18.7443 91.9548 18.7443 91.9646 18.7443ZM70.0314 20.9808C70.1694 21.01 71.4497 21.6086 72.4149 22.089C73.3013 22.5303 74.6309 23.2366 74.6998 23.2954C74.7096 23.3052 74.2368 23.5504 73.656 23.8349C71.8043 24.7569 70.2187 25.6297 68.564 26.6302C68.0913 26.9147 67.6973 27.1502 67.6875 27.1502C67.6481 27.1502 67.6579 27.1108 67.9239 26.6302C68.8103 25.0218 69.5193 23.0993 69.9232 21.2258C69.9625 21.0787 70.0019 20.9808 70.0314 20.9808ZM68.751 21.2161C68.7807 21.2456 68.4458 22.4519 68.2391 23.1091C67.8351 24.3548 67.1556 25.9143 66.4958 27.0913C66.3381 27.3658 66.1018 27.768 65.9737 27.9935L65.7276 28.3859L65.1761 27.8563C64.536 27.2384 64.0138 26.8559 63.3443 26.5125C63.0782 26.3753 62.8714 26.2575 62.8714 26.238C62.8714 26.1595 64.5556 24.6392 65.8458 23.5407C66.7715 22.7462 68.7216 21.1867 68.751 21.2161ZM76.581 24.4235L77.0636 24.7372C78.1664 25.4534 79.4664 26.4047 80.4614 27.2384C81.0226 27.6993 82.1059 28.6704 82.3228 28.9058L82.4408 29.0335L81.6432 29.259C77.1324 30.5045 73.646 31.6129 69.5784 33.1038C69.1254 33.2705 68.7412 33.4078 68.7116 33.4078C68.6527 33.4078 68.6033 33.4568 69.6179 32.525C72.218 30.1418 74.5225 27.513 76.2362 24.953L76.581 24.4235ZM74.5226 24.9335C74.5422 24.953 73.1929 26.846 72.3853 27.9151C71.4201 29.1903 69.7064 31.3284 68.5246 32.7211C68.0322 33.2999 67.6088 33.7805 67.589 33.7904C67.5594 33.8001 67.5496 33.653 67.5496 33.4274C67.5496 32.2405 67.2444 30.9752 66.7124 29.8964C66.4859 29.4452 66.4465 29.3373 66.4959 29.2883C66.683 29.1215 69.5489 27.4933 71.361 26.5224C72.5823 25.875 74.4928 24.9139 74.5226 24.9335ZM62.0736 27.9741C62.1032 27.9741 62.3298 28.0917 62.5859 28.2291C63.2162 28.5723 63.7775 28.9548 64.2798 29.3669C64.2994 29.3864 64.0435 29.5925 63.7086 29.8376C62.7729 30.5045 61.3548 31.5737 60.5276 32.2309C59.6607 32.9175 59.6313 32.9371 59.7297 32.79C60.3798 31.7993 60.7047 31.2402 61.0495 30.5243C61.3548 29.8868 61.66 29.1315 61.8767 28.4743C61.9554 28.1899 62.054 27.9741 62.0736 27.9741ZM65.3928 30.5634C65.4419 30.5537 65.5011 30.6419 65.7669 31.0343C66.3283 31.8678 66.7617 32.9862 66.8702 33.8885L66.8897 34.0848L65.5406 34.6046C63.1275 35.5363 60.9018 36.4584 59.3947 37.1448C58.9714 37.3411 58.2327 37.6941 57.7502 37.9297C57.2675 38.1747 56.8736 38.3611 56.8736 38.3514C56.8736 38.3416 57.1788 38.116 57.553 37.8413C60.498 35.7129 63.0487 33.3784 64.9594 31.0441C65.1662 30.7988 65.3534 30.5732 65.373 30.5635L65.3928 30.5634ZM63.8662 30.9362C63.9057 30.9754 62.7829 32.2406 62.0147 33.0155C60.1139 34.9478 58.2328 36.4584 55.8985 37.9297C55.6031 38.116 55.3372 38.2827 55.3076 38.3024C55.2386 38.3416 55.3272 38.2434 56.3516 37.1351C57.0017 36.4387 57.494 35.8502 58.0554 35.1245C58.4296 34.6439 58.4986 34.5752 59.0404 34.1925C60.4882 33.1528 63.8268 30.8969 63.8662 30.9362Z" fill="url(#paint2_radial_156_411)"/>
<path d="M21.2179 71.5496C21.0363 71.5496 20.8545 71.5668 20.6745 71.5668C17.0048 71.7616 14.5298 73.3699 13.0827 76.5107C11.8451 79.3513 11.9802 83.0644 13.0966 85.9224C14.3949 88.715 16.4926 90.1888 19.9942 90.7455C20.735 90.8663 21.2318 91.2714 22.6667 92.9399L24.4323 94.9999H27.6344L25.5052 92.8623C24.3282 91.6902 23.3762 90.6696 23.3762 90.5799C23.3762 90.4903 23.8265 90.2938 24.3715 90.1284C26.1682 89.5869 27.6602 88.2046 28.7039 86.086C29.5486 84.3848 29.6698 83.8588 29.7909 81.7422C30.1077 75.4418 26.7722 71.5028 21.2178 71.5477L21.2179 71.5496ZM24.0254 88.0256C22.4676 88.777 20.2055 88.927 18.729 88.3875C17.2023 87.8291 15.7241 86.2501 15.0593 84.4625C14.3203 82.5077 14.4258 78.9017 15.2705 77.2777C16.6293 74.692 18.4261 73.5027 21.0518 73.5027C24.9462 73.5027 27.1617 75.8782 27.4508 80.3427C27.6793 84.0696 26.4261 86.8655 24.027 88.024L24.0254 88.0256ZM79.3411 76.9312C77.998 76.9312 76.9698 77.4727 76.2773 78.5394L75.7339 79.3842V77.188H73.4093V90.3578H75.7323V86.1483C75.7323 82.2991 75.7805 81.8492 76.3207 80.7958C77.0651 79.3513 78.3457 78.631 79.5835 78.9757L80.4143 79.2171V76.9347H79.3411V76.9312ZM65.6845 76.8105C65.2291 76.8105 64.7461 76.8709 64.2652 76.9762C61.1546 77.7862 59.4013 80.7511 59.5086 83.8022C59.5086 86.357 60.0069 87.6342 61.2448 88.9737C63.7806 91.0456 66.0739 91.211 69.1687 90.0993C69.6967 89.8752 70.2713 89.6167 70.2713 89.6167V87.5447L69.1687 88.1136C66.6641 89.1995 64.7774 89.1995 63.2662 87.9204C62.3023 86.943 61.8781 85.7708 61.6826 84.4333H71.0553V82.6576C71.0553 79.0377 68.8675 76.7519 65.6825 76.8105H65.6845ZM61.8938 82.5852C61.8938 82.5852 62.24 80.3272 63.5243 79.4411C64.1424 79.0066 64.8519 78.7964 65.5459 78.7964C66.2418 78.7964 66.9358 79.0204 67.5088 79.4567C68.6859 80.3582 68.8832 82.5682 68.8832 82.5682H61.8938V82.5852H61.8938ZM5.85276 80.21C3.33267 78.6895 2.2145 77.5931 2.35123 76.3002C2.74233 72.7234 7.18045 73.2182 9.6382 74.5714L9.65568 72.1651C9.65568 72.1651 8.29686 71.579 6.34954 71.5479C3.36204 71.5031 1.43037 72.4787 0.525233 74.4645C-0.804214 77.3949 0.37294 79.6047 4.62755 82.0699C7.0161 83.454 8.07185 84.6556 8.07185 85.9656C8.07185 88.672 4.79533 89.6167 1.41496 87.9187C0.71927 87.5739 0.130693 87.286 0.099564 87.286C-0.0216793 88.0532 0.0408181 89.8889 0.0408181 89.8889C0.0408181 89.8889 1.07941 90.3234 2.63705 90.6231C6.50024 91.3902 10.0158 89.5854 10.3481 86.655C10.6372 83.9039 9.63828 82.461 5.85292 80.208L5.85276 80.21ZM99.9144 76.7796C99.4609 76.7796 98.9797 76.8416 98.4777 76.9467C95.3709 77.7569 93.6208 80.7219 93.7402 83.7731C93.7402 86.3243 94.2371 87.5895 95.4746 88.9271C98.0105 91.0009 100.304 91.168 103.414 90.0546C103.94 89.8306 104.513 89.5756 104.513 89.5756V87.5001L103.413 88.0722C100.903 89.1548 99.0161 89.1548 97.5103 87.8758C96.5409 86.9002 96.1204 85.7417 95.9247 84.3885H105.282V82.613C105.282 79.0104 103.094 76.7228 99.9092 76.7832L99.9144 76.7796ZM96.1237 82.5542C96.1237 82.5542 96.4734 80.2995 97.7559 79.3962C98.3722 78.9602 99.0818 78.7498 99.7759 78.7498C100.468 78.7498 101.166 78.9738 101.739 79.4117C102.916 80.3132 103.113 82.5387 103.113 82.5387H96.1256L96.1237 82.5542ZM53.5162 80.2392C50.9961 78.7223 49.8813 77.6224 50.0164 76.3295C50.4075 72.7508 54.8457 73.2474 57.3034 74.6007L57.3208 72.1943C57.3208 72.1943 55.962 71.6082 54.0147 71.5805C51.0272 71.5357 49.0955 72.5114 48.1887 74.4972C46.8611 77.4275 48.0537 79.6375 52.2943 82.1026C54.6796 83.4852 55.7353 84.6711 55.7353 85.9811C55.7353 88.6875 52.4605 89.6477 49.08 87.9341C48.3877 87.5893 47.7993 87.3048 47.7646 87.3048C47.6434 88.0718 47.7059 89.9078 47.7059 89.9078C47.7059 89.9078 48.7322 90.3267 50.2848 90.6421C54.1516 91.4109 57.6688 89.6078 57.9994 86.6773C58.2868 83.9399 57.2898 82.4972 53.5163 80.2424V80.2392H53.5162ZM113.573 76.9002C112.23 76.9002 111.19 77.4431 110.509 78.5102L109.966 79.3514V77.1588H107.641V90.3251H109.964V86.1157C109.964 82.2682 110.011 81.8165 110.553 80.765C111.297 79.3222 112.577 78.6001 113.815 78.9464L114.646 79.1877V76.9003L113.573 76.9002ZM35.0304 80.1633V71.7752H32.6869V90.3544H42.5426V88.1601H35.0305V80.1633H35.0304ZM89.2279 82.7782L87.2963 87.7842L85.4389 82.7507L83.5522 77.1726H81.1533C82.7078 81.5614 84.3986 86.0259 86.1036 90.3544C86.8427 90.3716 87.5835 90.3544 88.3225 90.3544L90.9311 83.8316L93.588 77.1742H91.2947C91.2947 77.1742 90.2819 79.8186 89.2263 82.78L89.2279 82.7782ZM40.4307 66.7125C40.8081 66.7125 41.1231 66.592 41.3827 66.3334C41.6388 66.0782 41.7738 65.7782 41.7738 65.4025C41.7738 65.0267 41.6388 64.7129 41.3827 64.4716C41.1231 64.2303 40.8236 64.1095 40.448 64.1095C40.0673 64.1095 39.7522 64.2303 39.496 64.4853C39.2364 64.7406 39.1187 65.0543 39.1187 65.4163C39.1187 65.7956 39.2399 66.1092 39.496 66.3472C39.7384 66.5884 40.0534 66.7092 40.4307 66.7092V66.7125ZM39.6 64.5751C39.8249 64.3511 40.0985 64.2475 40.4481 64.2475C40.777 64.2475 41.0505 64.3511 41.279 64.5751C41.504 64.7992 41.6252 65.0715 41.6252 65.4025C41.6252 65.7334 41.504 66.0197 41.279 66.2437C41.0506 66.4676 40.777 66.5746 40.4481 66.5746C40.114 66.5746 39.8422 66.4712 39.6173 66.2437C39.3923 66.0197 39.2711 65.7334 39.2711 65.4025C39.2711 65.0715 39.375 64.7992 39.6 64.5751ZM40.159 65.5232H40.3112C40.4187 65.5232 40.5242 65.6266 40.6142 65.8232L40.7961 66.2298H41.0816L40.8566 65.7781C40.7649 65.5972 40.675 65.4921 40.5693 65.4626C40.7026 65.4316 40.8081 65.3868 40.8843 65.2971C40.9603 65.2197 40.9881 65.1144 40.9881 64.9954C40.9881 64.8576 40.9448 64.7542 40.8532 64.6783C40.7493 64.5922 40.5831 64.5457 40.3684 64.5457H39.8874V66.2298H40.1297V65.5231L40.159 65.5232ZM40.159 64.7406H40.3702C40.5225 64.7406 40.6299 64.7716 40.6887 64.8163C40.7459 64.8612 40.7614 64.9199 40.7614 65.0267C40.7614 65.2214 40.6401 65.3129 40.4152 65.3129H40.1557V64.7406H40.159ZM1.44585 65.3732C1.44585 64.7871 1.42861 64.3511 1.41472 64.0942H1.42861C1.48911 64.3973 1.56358 64.6233 1.62417 64.7732L3.87423 69.7792H4.25161L6.50167 64.7285C6.56242 64.5907 6.623 64.3837 6.69739 64.0958H6.71463C6.66969 64.5958 6.65413 65.0302 6.65413 65.3766V69.7947H7.42421V63.2271H6.45841L4.39009 67.7951C4.31387 67.976 4.20827 68.2468 4.0733 68.6053H4.04201C3.99707 68.4277 3.89147 68.1571 3.74093 67.8261L1.71915 63.2114H0.69285V69.779H1.43364V65.3764L1.44585 65.3732ZM9.11196 65.3854H9.77676V69.4758H9.11196V65.3854ZM9.44432 63.8856C9.58288 63.8856 9.70054 63.8389 9.79049 63.7477C9.88228 63.658 9.94294 63.5408 9.94294 63.403C9.94294 63.2685 9.89784 63.1477 9.79233 63.0582C9.69886 62.9668 9.57937 62.9202 9.44264 62.9202C9.30775 62.9202 9.18659 62.9668 9.09639 63.0582C9.00492 63.1477 8.94418 63.2685 8.94418 63.403C8.94418 63.553 8.99095 63.658 9.09639 63.7477C9.20048 63.8389 9.30767 63.8856 9.44264 63.8856H9.44432ZM14.5159 69.5656V68.8449C14.1524 69.1156 13.7612 69.2502 13.3562 69.2502C12.8717 69.2502 12.4786 69.0847 12.1913 68.7676C11.9057 68.4539 11.7535 68.0176 11.7535 67.4747C11.7535 66.9058 11.9057 66.454 12.2207 66.1092C12.5236 65.7783 12.9166 65.6128 13.3979 65.6128C13.7907 65.6128 14.1679 65.7337 14.516 65.9751V65.208C14.1993 65.0425 13.8376 64.9666 13.429 64.9666C12.6742 64.9666 12.0859 65.208 11.6463 65.6736C11.21 66.1389 10.985 66.7716 10.985 67.5352C10.985 68.2143 11.1805 68.785 11.5874 69.2211C12.0114 69.6692 12.5534 69.8968 13.2179 69.8968C13.7318 69.8827 14.1524 69.7757 14.5159 69.5656ZM16.4181 67.3849C16.4181 66.8453 16.5392 66.4093 16.7643 66.1092C16.9755 65.8387 17.2316 65.7025 17.5345 65.7025C17.7907 65.7025 17.9724 65.749 18.1056 65.8542V65.0715C18.0018 65.0267 17.8512 65.0112 17.6557 65.0112C17.3839 65.0112 17.1417 65.1023 16.9288 65.2698C16.7038 65.4472 16.5238 65.718 16.4182 66.0627H16.4009V65.1025H15.648V69.7912H16.4026V67.3849H16.4181ZM20.7505 69.8843C21.4603 69.8843 22.0314 69.6567 22.4554 69.2052C22.8777 68.7568 23.0889 68.1537 23.0889 67.4019C23.0889 66.6351 22.8951 66.0489 22.5004 65.6126C22.1093 65.1767 21.5657 64.9662 20.856 64.9662C20.1462 64.9662 19.575 65.1766 19.1511 65.5833C18.6976 66.0317 18.4587 66.6643 18.4587 67.4762C18.4587 68.183 18.6526 68.7692 19.0612 69.2052C19.4834 69.6567 20.0425 69.8826 20.7505 69.8826V69.8843ZM19.6774 66.0644C19.9647 65.7627 20.3422 65.6127 20.8093 65.6127C21.2942 65.6127 21.6576 65.7627 21.9276 66.0644C22.1993 66.3799 22.3344 66.8299 22.3344 67.4314C22.3344 68.0036 22.2132 68.4536 21.957 68.7552C21.7009 69.0707 21.3235 69.2378 20.8249 69.2378C20.3403 69.2378 19.9647 69.0706 19.6774 68.7552C19.3919 68.4381 19.2551 68.0036 19.2551 67.4314C19.2257 66.8626 19.3763 66.3972 19.6774 66.0644ZM26.3933 69.4758C26.6806 69.2208 26.833 68.9071 26.833 68.5138C26.833 68.1691 26.7117 67.883 26.4868 67.6572C26.3032 67.4763 26.0195 67.3124 25.6093 67.1469C25.2456 66.9954 25.0207 66.8607 24.8995 66.7556C24.7784 66.635 24.7039 66.4852 24.7039 66.273C24.7039 66.0782 24.7801 65.9282 24.9291 65.8076C25.0814 65.6871 25.2752 65.6285 25.5349 65.6285C25.9416 65.6285 26.2895 65.7352 26.6079 65.9612V65.2095C26.3033 65.058 25.9727 64.9856 25.5953 64.9856C25.1107 64.9856 24.7022 65.1184 24.4009 65.375C24.0841 65.6303 23.9337 65.9612 23.9337 66.3507C23.9337 66.6954 24.0374 66.9817 24.2346 67.1918C24.4008 67.3712 24.6849 67.554 25.0794 67.7176C25.4568 67.8832 25.713 68.033 25.8496 68.1536C25.9846 68.2744 26.0452 68.4242 26.0452 68.602C26.0452 69.0397 25.7441 69.2657 25.1555 69.2657C24.702 69.2657 24.2954 69.1173 23.9317 68.8175V69.6274C24.2606 69.8242 24.6553 69.9137 25.0914 69.9137C25.6505 69.8844 26.0883 69.7482 26.3896 69.4776L26.3933 69.4758ZM29.9866 64.9663C29.2768 64.9663 28.7057 65.1767 28.2817 65.5835C27.8316 66.0319 27.5893 66.6645 27.5893 67.4764C27.5893 68.1832 27.785 68.7693 28.1917 69.2054C28.6158 69.6569 29.1731 69.8827 29.8828 69.8827C30.6097 69.8827 31.1637 69.6553 31.5877 69.2035C32.0118 68.7554 32.2229 68.1521 32.2229 67.4004C32.2229 66.6333 32.0256 66.0473 31.6343 65.6112C31.2261 65.175 30.6823 64.9647 29.99 64.9647L29.9866 64.9663ZM31.4509 67.4315C31.4509 68.0037 31.3297 68.4537 31.0736 68.7553C30.8174 69.0708 30.44 69.2379 29.9415 69.2379C29.4567 69.2379 29.0812 69.0707 28.7938 68.7553C28.5083 68.4382 28.3715 68.0037 28.3715 67.4315C28.3715 66.8282 28.5222 66.3628 28.8251 66.0489C29.1106 65.749 29.4881 65.5972 29.9571 65.5972C30.4244 65.5972 30.8001 65.7488 31.0717 66.0489C31.3141 66.3798 31.4491 66.8298 31.4491 67.4315H31.4509ZM33.49 69.7775H34.2429V65.7181H35.3455V65.0871H34.2429V64.3631C34.2429 63.7047 34.4989 63.3737 35.0287 63.3737C35.207 63.3737 35.3887 63.4185 35.5238 63.4944V62.8171C35.3887 62.7567 35.207 62.743 34.98 62.743C34.5734 62.743 34.2411 62.8637 33.9692 63.1187C33.6524 63.4186 33.4847 63.8082 33.4847 64.3359V65.1047H32.6882V65.7356H33.4847V69.7797L33.49 69.7775ZM36.583 68.4984C36.583 69.4156 36.9899 69.8827 37.8206 69.8827C38.1218 69.8827 38.3485 69.8345 38.5303 69.7276V69.0829C38.3919 69.1864 38.2274 69.2347 38.0457 69.2347C37.7896 69.2347 37.6096 69.1742 37.5039 69.038C37.3965 68.9037 37.336 68.676 37.336 68.3622V65.7163H38.5302V65.0853H37.336V63.703C37.0764 63.7926 36.822 63.8685 36.5813 63.9442V65.0852H35.7678V65.7162H36.5813V68.4967L36.583 68.4984ZM117.589 77.1414C117.332 76.9002 117.029 76.7795 116.654 76.7795C116.273 76.7795 115.958 76.9002 115.702 77.1587C115.446 77.4122 115.324 77.7275 115.324 78.0897C115.324 78.4655 115.446 78.7792 115.7 79.0204C115.956 79.2617 116.271 79.3826 116.652 79.3826C117.028 79.3826 117.344 79.2617 117.604 79.0067C117.859 78.7481 117.993 78.4499 117.993 78.0759C117.98 77.6967 117.843 77.3828 117.587 77.1416L117.589 77.1414ZM117.467 78.9171C117.242 79.1411 116.969 79.2445 116.637 79.2445C116.308 79.2445 116.034 79.1411 115.806 78.9171C115.581 78.6895 115.46 78.4051 115.46 78.0723C115.46 77.7447 115.563 77.4726 115.792 77.245C116.017 77.0211 116.289 76.9174 116.637 76.9174C116.965 76.9174 117.239 77.0211 117.467 77.245C117.692 77.4726 117.814 77.7447 117.814 78.0723C117.814 78.4207 117.71 78.6895 117.467 78.9171ZM116.789 78.1499C116.924 78.1189 117.031 78.0586 117.106 77.9845C117.182 77.9068 117.21 77.8016 117.21 77.6812C117.21 77.5467 117.166 77.4398 117.075 77.3657C116.971 77.2795 116.803 77.2329 116.59 77.2329H116.109V78.9152H116.351V78.2085H116.502C116.606 78.2085 116.71 78.3118 116.803 78.5084L116.983 78.9135H117.27L117.045 78.4618C116.967 78.2653 116.877 78.1755 116.786 78.1462L116.789 78.1499ZM116.623 77.9983H116.363V77.4296H116.576C116.727 77.4296 116.832 77.457 116.893 77.5037C116.953 77.5484 116.967 77.6071 116.967 77.714C116.967 77.9087 116.846 77.9985 116.621 77.9985L116.623 77.9983ZM74.512 64.8923H74.7232V63.2082H75.2821V62.9978H73.953V63.2082H74.5122V64.8923H74.512ZM75.7928 63.6271C75.7928 63.4632 75.7928 63.3287 75.7807 63.2531C75.7946 63.3426 75.8257 63.4031 75.8396 63.4478L76.4888 64.8923H76.5926L77.2433 63.4339C77.2608 63.3892 77.2747 63.3305 77.3039 63.2531C77.2901 63.4031 77.2901 63.5234 77.2901 63.615V64.8907H77.5151V62.9978H77.2433L76.655 64.3045C76.6411 64.3512 76.5941 64.4423 76.5648 64.5459H76.5475C76.5354 64.4854 76.5043 64.4252 76.461 64.3219L75.8725 62.998H75.5679V64.8941H75.7807V63.6289L75.7928 63.6271Z" fill="#F52727" fill-opacity="0.7"/>
</g>
<defs>
<linearGradient id="paint0_linear_156_411" x1="52.2698" y1="58.3875" x2="56.9714" y2="55.598" gradientUnits="userSpaceOnUse">
<stop stop-color="#909CA9"/>
<stop offset="1" stop-color="#EDEDEE"/>
</linearGradient>
<linearGradient id="paint1_linear_156_411" x1="52.3777" y1="6.11645" x2="56.1688" y2="6.11645" gradientUnits="userSpaceOnUse">
<stop stop-color="#939FAB"/>
<stop offset="1" stop-color="#DCDEE1"/>
</linearGradient>
<radialGradient id="paint2_radial_156_411" cx="0" cy="0" r="1" gradientTransform="matrix(-4.83354 -0.723073 -1.46842 9.62743 71.5076 23.4323)" gradientUnits="userSpaceOnUse">
<stop stop-color="#EE352C"/>
<stop offset="1" stop-color="#A91D22"/>
</radialGradient>
<clipPath id="clip0_156_411">
<rect width="118" height="95" fill="white"/>
</clipPath>
</defs>
</svg>
