<svg width="80" height="80" viewBox="0 0 80 80" fill="none" xmlns="http://www.w3.org/2000/svg">
<path d="M77.1716 8.47512L60.6988 0.497643C59.7685 0.0464613 58.7218 -0.102429 57.7036 0.0716119C56.6855 0.245652 55.7463 0.734002 55.0165 1.46896L1.09268 50.9201C0.438421 51.5173 0.046788 52.3514 0.0039266 53.239C-0.0389348 54.1266 0.270486 54.995 0.864124 55.6532C0.935546 55.7308 1.00697 55.8055 1.0841 55.8744L5.48657 59.8977C6.06184 60.4243 6.80233 60.7317 7.57943 60.7663C8.35652 60.801 9.12114 60.5607 9.74048 60.0873L74.6918 10.5442C75.1824 10.1697 75.7672 9.94044 76.3803 9.88214C76.9935 9.82385 77.6106 9.93885 78.1622 10.2142C78.7139 10.4896 79.1782 10.9144 79.5029 11.4408C79.8275 11.9672 79.9997 12.5743 79.9999 13.1938V13.0012C79.9999 12.0555 79.7344 11.129 79.2341 10.3283C78.7337 9.52759 78.0188 8.88523 77.1716 8.47512Z" fill="#0065A9"/>
<path d="M77.1716 71.5247L60.6988 79.505C59.7683 79.9549 58.7218 80.1031 57.7039 79.9291C56.6861 79.7551 55.747 79.2676 55.0165 78.5337L1.09268 29.0797C0.438421 28.4825 0.046788 27.6484 0.0039266 26.7608C-0.0389348 25.8732 0.270486 25.0048 0.864124 24.3466C0.935546 24.269 1.00697 24.1943 1.0841 24.1254L5.48657 20.1021C6.06243 19.5733 6.80461 19.2646 7.58362 19.2299C8.36263 19.1952 9.12902 19.4368 9.74905 19.9125L74.6918 69.4556C75.1824 69.8301 75.7672 70.0593 76.3803 70.1176C76.9935 70.1759 77.6106 70.0609 78.1622 69.7856C78.7139 69.5102 79.1782 69.0854 79.5029 68.559C79.8275 68.0326 79.9997 67.4255 79.9999 66.806V67.0129C79.9969 67.9561 79.73 68.8795 79.2298 69.6773C78.7297 70.4752 78.0164 71.1153 77.1716 71.5247Z" fill="#007ACC"/>
<path d="M60.6989 79.505C59.7684 79.9549 58.7219 80.1031 57.704 79.9291C56.6862 79.7551 55.7471 79.2675 55.0166 78.5337C55.4268 78.941 55.9475 79.2174 56.5132 79.3284C57.079 79.4393 57.6648 79.3798 58.1971 79.1574C58.7294 78.9349 59.1846 78.5593 59.5056 78.0778C59.8267 77.5962 59.9993 77.03 60.0018 76.4502V3.54943C60.0023 2.96689 59.8309 2.39732 59.5093 1.91286C59.1877 1.4284 58.7304 1.05085 58.1953 0.828044C57.6602 0.605237 57.0714 0.547195 56.5035 0.661271C55.9356 0.775347 55.4141 1.05641 55.0051 1.46885C55.7351 0.734154 56.6741 0.245774 57.692 0.0712493C58.71 -0.103275 59.7567 0.0446809 60.6875 0.494655L77.1574 8.46064C78.0073 8.8687 78.7252 9.51018 79.2281 10.311C79.7311 11.1119 79.9987 12.0395 80 12.9868V67.0129C80.0003 67.9594 79.7346 68.8868 79.2337 69.6881C78.7328 70.4893 78.017 71.132 77.1689 71.5419L60.6989 79.505Z" fill="#1F9CF0"/>
</svg>
